<svg width="400" height="400" viewBox="0 0 400 400" fill="none" xmlns="http://www.w3.org/2000/svg">
<path d="M355.872 388.98C337.872 389.6 300.472 388.452 262.086 389.75C247.379 390.25 232.655 389.994 217.974 388.98V11.258C229.342 9.93999 252.086 13.058 282.322 13.306C303.922 13.49 329.402 12.588 353.388 11.53C376.1 10.53 376.552 21.416 376.714 30.89C376.914 42.72 376.436 51.776 376.434 75.556C376.434 91.848 377.556 108.59 377.69 130.54C377.78 145.406 376.29 166.432 376.386 182.644C376.494 201.244 378.476 218.244 378.67 236.704C379.108 278.504 376.55 270.632 378.35 359.8C378.722 378.218 378.342 388.2 355.872 388.98Z" fill="#FFF6DD"/>
<path d="M48.442 256.496C47.13 249.496 44.624 239.788 46.912 232.45C49.2511 225.653 53.2759 219.56 58.61 214.742C62.21 211.244 67.352 209.276 71.834 203.482C76.316 197.688 77.516 200.968 80.688 196.378C83.86 191.788 91.182 186.872 94.234 186.542C97.286 186.212 121.668 187.856 129.648 194.302C137.628 200.748 139.154 207.85 142.648 212.232C146.142 216.614 153.588 227.52 154.9 232.232C157.04 239.124 159.936 245.758 163.534 252.014C166.374 256.258 170.534 268.522 170.856 277.814C171.178 287.106 170.964 293.014 170.964 293.014C170.964 293.014 171.842 337.934 172.28 342.31C172.718 346.686 174.67 351.162 174.79 355.096C174.91 359.03 173.916 364.388 175.008 367.34C176.1 370.292 179.052 379.034 179.272 380.456C179.492 381.878 158.832 386.904 142.986 384.388C127.14 381.872 114.566 385.266 97.842 384.608C81.118 383.95 60.788 384.5 59.258 382.858C57.728 381.216 62.446 372.258 63.74 368.212C65.034 364.166 63.632 360.562 65.05 353.47C66.468 346.378 68.988 343.194 66.474 338.824C62.5708 331.148 59.9836 322.872 58.82 314.34C57.9353 305.861 55.8755 297.547 52.7 289.636C50.186 283.95 48.436 280.128 48.766 269.196C48.334 263.492 49.756 263.492 48.442 256.496Z" fill="#D8E9FF"/>
<path d="M342.128 111.574C342.596 126.118 344.052 210.266 342.46 231.82C342.271 233.477 341.53 235.023 340.356 236.207C339.182 237.392 337.643 238.147 335.988 238.35C339.176 235.884 338.942 230.932 339.02 229.504C339.11 227.884 338.42 120.26 338.02 109.268C338.256 106.496 337.552 103.725 336.02 101.402C335.57 100.784 335.308 100.43 335.706 100.498C342.76 101.704 342 107.4 342.128 111.574Z" fill="white"/>
<path d="M337.27 172.046C337.342 174.154 337.126 226.002 336.78 229.96C336.202 236.546 333.98 239.266 326.696 238.422C252.454 229.822 248.312 230.022 247.276 228.546C245.876 226.53 245.614 225.746 244.754 225.296C244.252 225.036 244.24 224.714 244.384 224.228C244.528 223.742 244.602 223.406 245.272 223.628C245.316 223.628 311.054 230.114 326.71 229.386C327.128 229.338 327.527 229.184 327.869 228.939C328.211 228.694 328.485 228.366 328.666 227.986C329.238 226.986 329.69 202.892 329.454 192.972C327.838 125.208 329.574 110.186 326.666 108.336C325.95 107.88 325.39 107.674 320.832 108.678C294.474 114.478 230.122 125.708 218.652 130.262C216.008 131.312 215.466 133.508 215.372 136.78C214.808 156.8 216.19 206.95 216.078 213.248C216.078 213.288 212.934 223.528 212.806 223.716C210.966 222.368 212.03 220.6 211.806 204.862C211.702 197.284 210.206 180.56 210.846 134.202C210.918 129.106 211.412 128.22 213.246 127.002C218.646 123.418 319.668 102.47 321.174 102.144C329.86 100.258 333.974 99.19 335.518 104.896C336.742 109.428 335.876 131.91 337.27 172.046Z" fill="white"/>
<path d="M326.828 224.066C326.702 225.692 326.254 226.74 325.008 226.616C324.964 226.616 306.954 227.792 265.472 222.788C247.942 220.672 244.69 221.878 244.404 220.624C243.934 219.001 242.888 217.606 241.462 216.7C244.3 215.652 303.03 221.024 319.41 220.052C320.124 219.729 320.734 219.215 321.172 218.566C321.61 217.917 321.859 217.158 321.892 216.376C321.604 200.674 321.582 136.258 321.092 121.79C320.966 118.108 319.578 117.414 316.744 117.914C316.06 118.034 225.944 135.186 225.9 135.194C220.952 136.234 221.422 135.78 221.636 157.38C221.936 187.498 223.418 198.514 222.668 203.902C220.799 205.829 219.23 208.026 218.014 210.42C217.968 210.22 216.75 152.474 217.234 136.66C217.344 133.074 218.668 132.212 220.552 131.588C232.262 127.706 274.822 120.038 286.694 117.614C309.894 112.882 319.052 111.032 322.996 110.65C325.622 110.396 325.876 111.626 326.016 114.176C326.266 116.22 327.48 215.692 326.828 224.066Z" fill="#666666"/>
<path d="M319.71 182.722C319.65 183.004 319.404 186.308 319.65 214.74C319.67 217.08 318.618 217.772 317.55 217.956C316.482 218.14 303.45 217.578 297.382 217.356C291.62 217.156 286.824 216.692 285.926 216.676C285.866 214.324 285.598 172.744 285.526 171.388C285.472 170.332 285.43 170.272 286.526 170.216C309.636 169.042 302.512 168.764 318.584 167.758C319.856 167.678 319.418 166.902 319.51 176.238C319.52 176.284 319.694 182.682 319.71 182.722ZM312.274 205.288C317.874 204.778 316.338 204.148 314.314 186.96C314.31 186.718 314.255 186.479 314.154 186.258C314.053 186.038 313.907 185.841 313.726 185.68C313.545 185.519 313.332 185.397 313.101 185.322C312.871 185.247 312.627 185.22 312.386 185.244C310.034 185.244 312.246 183.844 310.254 179.076C308.454 174.792 304.288 173.836 300.36 175.322C297.694 176.322 295.534 178.148 295.336 183.322C295.268 185.086 295.448 185.82 294.412 186.082C292.212 186.638 292.426 188.618 292.012 194.498C291.934 195.638 291.6 201.742 291.612 203.016C291.648 206.284 293.412 205.358 310.976 205.478C311.378 205.476 311.832 205.328 312.274 205.288Z" fill="#BED4FC"/>
<path d="M319.2 141.876C319.4 167.232 319.88 165.896 318.9 165.936C312.97 166.174 295.316 168.286 295.172 167.656C284.812 168.602 285.484 168.598 285.446 167.824C285.032 159.458 284.546 127.494 284.55 127.454C284.75 125.388 281.326 126.624 317.62 120.028C320.362 119.53 319.114 129.56 319.2 141.876ZM309.34 148.904C311.252 146.256 314.224 143.138 313.886 139.888C314.286 132.748 307.652 127.202 298.668 131.52C290.506 135.444 292.868 146.108 298.096 148.52C298.639 148.94 299.02 149.534 299.178 150.202C299.254 150.556 296.904 151.866 298.162 154.202C298.318 154.445 298.408 154.725 298.424 155.013C298.44 155.301 298.382 155.589 298.254 155.848C298.108 156.206 298.034 156.589 298.036 156.975C298.039 157.361 298.117 157.743 298.268 158.099C298.418 158.455 298.637 158.778 298.912 159.049C299.188 159.319 299.514 159.533 299.872 159.678C304.872 161.678 303.298 160.678 308.402 159.912C308.832 159.839 309.228 159.631 309.532 159.319C309.836 159.006 310.034 158.606 310.096 158.174C310.73 155.802 309.244 155.872 309.658 154.756C310.904 151.42 307.636 151.276 309.35 148.904H309.34Z" fill="#C3F6C0"/>
<path d="M314.37 200.972C314.876 204.332 310.01 203.39 294.55 203.702C293.132 203.73 293.078 204.572 293.886 190.35C293.944 189.334 294.18 188.04 295.184 187.888C295.898 187.78 308.984 186.81 311.266 187.056C313.026 187.244 312.186 186.504 314.37 200.972ZM302.97 201.526C305.432 201.28 306.908 201.482 306.444 199.81C305.104 194.96 304.778 194.92 305.564 194.084C305.848 193.786 306.065 193.431 306.201 193.042C306.337 192.654 306.389 192.241 306.354 191.831C306.318 191.421 306.195 191.023 305.994 190.664C305.793 190.305 305.517 189.992 305.186 189.748C304.493 189.379 303.7 189.239 302.922 189.348C302.331 189.275 301.733 189.389 301.21 189.674C300.688 189.959 300.267 190.399 300.007 190.935C299.748 191.471 299.662 192.074 299.763 192.66C299.864 193.247 300.145 193.787 300.568 194.206C301.516 195.074 301.142 195.526 300.074 199.828C299.418 202.482 302.922 201.12 302.974 201.526H302.97Z" fill="white"/>
<path d="M306.036 132.23C307.771 132.535 309.331 133.471 310.417 134.857C311.504 136.244 312.039 137.983 311.92 139.74C311.44 145.846 306.92 146.674 307.026 150.076C307.06 151.184 306.472 150.642 302.11 150.952C300.588 151.06 302.11 148.11 298.62 146.45C297.514 145.659 296.617 144.611 296.008 143.395C295.398 142.179 295.095 140.833 295.124 139.474C295.16 138.074 295.588 137.574 297.524 134.58C299.954 132.733 303.002 131.891 306.036 132.23Z" fill="white"/>
<path d="M309.358 184.2C309.358 184.91 308.934 184.928 308.496 184.966C307.946 185.012 307.806 185.336 307.648 184.766C307.048 182.638 306.91 179.04 304.034 179.008C300.91 178.974 299.992 179.978 299.472 181.28C299.046 182.573 298.804 183.92 298.754 185.28C298.69 185.802 298.06 185.922 297.308 185.702C296.468 185.456 297.108 181.182 297.708 179.802C298.234 178.76 299.041 177.886 300.037 177.278C301.033 176.67 302.179 176.353 303.346 176.362C307.568 176.058 309.358 179.974 309.358 184.2Z" fill="white"/>
<path d="M308.4 157.104C308.6 158.104 307.54 158.06 305.736 158.408C300.954 157.948 299.936 158.208 299.854 156.874C299.758 155.18 302.926 157.274 307.454 156.212C307.822 156.124 308.302 156.6 308.4 157.104Z" fill="white"/>
<path d="M308.082 152.92C308.652 154.996 300.282 155.136 299.654 153.14C299.304 152.016 300.162 152.964 304.476 152.638C304.906 152.6 307.95 152.442 308.082 152.92Z" fill="white"/>
<path d="M305.58 182.584C306.658 186.168 305.524 185.222 300.942 185.446C299.742 185.504 300.342 182.81 300.826 181.712C301.226 181.107 301.841 180.676 302.546 180.507C303.252 180.338 303.995 180.443 304.626 180.8C305.106 181.293 305.436 181.911 305.58 182.584Z" fill="#BED4FC"/>
<path d="M283.972 177.42C283.972 177.464 284.322 216.648 284.318 216.688C275.718 216.628 255.99 215.138 255.098 215.018C254.206 214.898 254.182 214.392 254.156 214.102C253.012 200.246 254.404 186.414 253.496 173.902C253.412 172.748 252.408 173.464 282.908 170.552C283.924 170.446 283.878 169.844 283.972 177.42ZM279.588 188.4C281.28 187.374 281.388 187.226 280.484 185.504C279.982 184.145 279.272 182.872 278.38 181.73C276.98 180.302 276.312 181.002 274.078 181.988C272.372 182.742 272.592 180.912 272.376 179C272.234 177.746 271.976 177.502 270.75 177.34C268.797 177.066 266.809 177.194 264.908 177.718C263.546 178.104 263.592 178.862 263.454 180.906C263.214 184.492 259.962 180.106 258.144 182.456C256.947 183.991 256.021 185.719 255.406 187.566C254.878 189.166 256.058 189.608 257.26 190.404C257.602 190.676 257.821 191.073 257.871 191.506C257.92 191.94 257.796 192.376 257.524 192.718C254.508 195.826 255.806 194.344 256.524 197.62C256.877 198.684 257.448 199.662 258.202 200.492C258.272 200.606 258.364 200.705 258.473 200.782C258.582 200.86 258.706 200.915 258.836 200.944C258.967 200.973 259.102 200.976 259.233 200.952C259.365 200.928 259.49 200.877 259.602 200.804C261.602 199.876 263.43 199.348 263.422 201.672C263.422 203.516 263.634 204.482 269.566 204.406C273.476 204.354 270.966 201.172 273.272 199.958C274.628 199.244 276.958 201.8 278.022 200.31C284.852 190.744 278.288 194.982 278.422 189.51C278.428 189.13 279.364 188.538 279.588 188.4Z" fill="#C3F6C0"/>
<path d="M283.2 150.88C283.4 168.304 284.4 168.538 283.096 168.636C279.282 168.92 275.832 169.526 272.8 169.866C271.8 169.978 260.4 170.666 257.32 170.982C253.452 171.382 253.46 171.52 253.46 170.734C253.482 136.418 251.396 132.518 252.966 132.334C256.03 131.964 261.852 130.252 282.116 126.534C283.296 126.31 282.892 124.2 283.2 150.88ZM280.258 149.096C280.914 147.496 278.372 148.082 277.172 148.2C276.172 148.296 275.172 148.072 275.172 149.224C275.172 150.376 278.058 149.51 278.09 149.972C279.37 149.71 279.986 149.734 280.248 149.096H280.258ZM279.766 156.678C280.818 156.102 280.566 155.344 280.01 155.078C278.659 154.3 277.255 153.615 275.81 153.03C274.61 152.93 274.84 154.164 275.584 154.596C276.897 155.435 278.296 156.133 279.756 156.678H279.766ZM275.702 144.354C275.746 144.354 282.28 139.826 278.938 139.754C275.916 141.6 273.218 144.664 275.692 144.354H275.702ZM261.324 154.106C276.89 160.01 274.752 163.436 272.984 140.486C272.646 136.102 262.106 147.408 259.984 147.286C256.438 147.086 255.548 148.202 255.72 151.298C255.942 155.4 260.528 153.8 261.314 154.106H261.324Z" fill="#FFEB8D"/>
<path d="M277.724 193.154C279.694 194.116 279.214 194.644 278.832 195.404C275.55 201.944 277.016 195.804 271.908 198.592C270.036 199.612 270.144 199.958 270.29 200.91C270.638 203.174 268.664 202.222 268.64 202.51C266.62 202.31 264.976 202.452 265.21 201.256C265.656 198.97 263.71 199.074 262.624 198.148C262.012 197.624 261.14 197.392 259.906 198.3C258.954 199 259.106 197.9 257.782 195.602C256.982 194.202 259.782 195.036 259.624 191.586C259.578 190.538 260.072 189.646 258.824 188.952C257.256 188.076 256.334 188.152 259.024 184.168C259.148 183.952 259.352 183.793 259.592 183.728C259.833 183.662 260.089 183.694 260.306 183.818C262.558 184.702 262.556 184.664 264.426 183.232C264.73 182.955 264.969 182.614 265.126 182.234C265.284 181.853 265.355 181.443 265.336 181.032C265.57 178.662 265.654 179.172 267.536 179.12C270.336 179.044 270.608 179.056 270.62 179.754C270.662 182.144 270.91 182.79 271.708 183.132C272.137 183.615 272.733 183.918 273.376 183.981C274.02 184.044 274.663 183.862 275.178 183.472C276.098 182.772 276.9 182.418 277.414 183.444C279.062 186.73 278.934 186.644 278.482 186.954C277.774 187.428 276.596 187.63 276.622 188.802C276.708 192.458 277.048 192.822 277.724 193.154ZM262.768 191.764C263.928 198.964 274.118 198.012 274.028 191.406C274.032 190.582 273.896 189.763 273.628 188.984C270.252 182.676 261.858 186.124 262.768 191.764Z" fill="white"/>
<path d="M272.562 155.128C272.606 157.128 272.722 156.492 266.974 154.256C262.752 152.612 262.152 153.056 261.658 151.14C261.515 150.797 261.442 150.429 261.443 150.058C261.444 149.686 261.518 149.319 261.663 148.976C261.807 148.634 262.018 148.324 262.283 148.064C262.548 147.804 262.863 147.599 263.208 147.462C265.237 146.147 267.181 144.706 269.028 143.146C273.124 140.058 270.578 141 272.562 155.128Z" fill="white"/>
<path d="M272.33 191C272.742 193.982 268.508 196.942 265.954 194.188C260.34 188.128 271.332 183.78 272.33 191Z" fill="#C3F6C0"/>
<path d="M259.936 149.458C260.078 152.422 260.612 152.418 259.074 152.434C257.644 152.634 257.294 151.494 257.346 150.286C257.4 148.896 259.876 148.2 259.936 149.458Z" fill="white"/>
<path d="M252.4 214.056C252.452 214.676 252.144 214.684 251.4 214.578C250.2 214.404 228.254 214.178 229.122 213.046C234.57 205.88 232.88 207.742 236.772 204.89C240.246 202.634 243.487 200.037 246.448 197.14C247.085 196.358 247.475 195.406 247.57 194.402C247.665 193.398 247.461 192.389 246.982 191.502C246.244 190.254 245.28 189.636 243.164 190.438C236.596 193.516 230.447 197.417 224.864 202.048C224.5 199.064 224.15 178.848 224.15 175.752C224.15 175.022 245.132 174.066 247.55 173.838C252.694 173.354 251.75 171.718 252.12 179.76C251.6 209.324 252.012 209.4 252.4 214.056ZM244.964 184.6C244.23 183.094 245.392 182.274 245.296 178.868C245.242 176.998 244.496 176.854 243.896 177.334C243.182 177.898 243.946 180.02 243.042 182.792C242.042 185.846 246.47 187.676 244.964 184.6ZM237.654 187.37C238.268 188.514 239.254 187.844 239.176 186.97C238.896 185.902 238.952 184.678 238.112 183.854C236.622 182.392 238.406 180.492 235.76 179.364C233.446 178.376 233.216 178.412 232.972 178.858C232.524 179.676 233.096 180.184 233.972 180.494C237.024 181.568 234.944 182.724 236.394 184.63C237.348 185.884 237.054 186.32 237.656 187.404L237.654 187.37ZM230.61 188.652C231.478 190.252 233.96 191.166 233.956 189.318C233.816 189.158 233.614 188.74 233.29 188.598C231.178 187.658 232.206 186.198 228.908 185.334C228.366 185.192 227.908 185.078 227.708 184.478C227.308 183.278 225.63 184.358 226.58 185.768C227.796 187.568 229.38 186.43 230.606 188.688L230.61 188.652Z" fill="#BED4FC"/>
<path d="M251.734 170.444C251.734 171.77 254.58 171.468 224.796 173.512C223.748 173.584 223.76 175.772 223.744 140.764C223.744 136.29 222.826 137.936 248.16 133.178C251.376 132.578 250.486 130.446 251.16 147.662C251.6 158.926 251.72 149.262 251.734 170.444ZM246.348 160.468C246.619 160.394 246.869 160.256 247.077 160.067C247.285 159.877 247.445 159.642 247.544 159.379C247.644 159.115 247.68 158.833 247.649 158.553C247.618 158.274 247.522 158.005 247.368 157.77C247.18 157.499 246.965 157.248 246.726 157.02C243.08 152.956 245.848 151.328 243.326 144.62C240.974 138.368 228.554 139.55 230.368 152.536C230.914 156.444 229.626 156.866 228.968 158.912C228.106 161.632 230.33 161.976 233.242 161.928C234.892 161.9 233.996 166.282 239.714 164.952C240.37 164.786 240.964 164.431 241.421 163.932C241.879 163.433 242.18 162.81 242.288 162.142C242.388 159.882 243.688 161.242 246.348 160.468Z" fill="#FF9C9F"/>
<path d="M245.412 193.654C245.494 194.558 245.124 195.956 242.164 198.176C231.478 206.192 231.564 205.83 229.812 208.176C227.35 211.45 224.012 214.906 223.544 218.976C223.486 219.494 222.722 220.324 222.604 220.538C221.884 221.862 223.004 222.466 224.098 221.908C228.728 220.095 233.588 218.936 238.538 218.462C239.069 218.484 239.588 218.619 240.062 218.86C240.535 219.101 240.951 219.441 241.281 219.857C241.612 220.273 241.848 220.756 241.975 221.271C242.102 221.787 242.116 222.324 242.016 222.846C241.862 223.988 241.908 224 240.746 223.806C240.706 223.806 233.574 225.452 231.946 225.518C227.564 225.7 226.79 229.204 228.894 228.906C229.846 228.77 229.858 227.986 232.082 227.95C238.254 227.848 240.362 224.884 243.544 227.95C244.216 228.475 244.709 229.195 244.955 230.011C245.202 230.827 245.189 231.699 244.92 232.508C244.12 234.296 244.12 232.108 240.246 231.878C237.846 231.736 229.81 233.368 231.18 235.046C231.488 235.42 231.654 235.988 232.404 235.742C241.048 232.902 242.25 234.408 243.836 237.114C245.354 239.714 244.406 242.448 242.708 244.934C241.308 246.986 241.364 248.16 240.01 248.572C237.962 249.196 235.01 249.258 235.388 247.25C235.748 245.326 235.62 244.748 236.452 244.65C237.5 244.512 237.68 243.61 238.852 243.418C242.268 242.854 242.564 239.528 239.92 240.722C238.72 241.26 240 239.522 238.53 239.41C237.562 239.332 237.698 240.29 236.742 241.678C235.786 243.066 235.718 240.784 234.188 241.148C234.001 241.18 233.829 241.27 233.695 241.405C233.561 241.54 233.473 241.713 233.442 241.9C230.096 253.586 229.216 251.388 227.704 256.3C226.172 261.3 221.6 265.332 220.014 267.1C219.456 267.722 219.738 267.404 216.03 264.43C215.03 263.63 216.994 263.012 214.906 260.012C210.124 253.138 207.676 254.154 208.22 252.33C208.8 250.39 207.186 255.454 212.858 233.626C214.858 225.956 215.676 219.47 219.676 212.166C222.193 207.945 225.458 204.218 229.31 201.166C233.759 197.987 238.383 195.06 243.16 192.4C243.874 191.958 245.234 191.728 245.412 193.654Z" fill="#E7BCA5"/>
<path d="M242.26 150.072C243 155.858 242.486 154.538 245.048 158.494C244.088 158.894 232.248 159.826 231.848 159.81C229.278 159.706 233.092 159.224 232.082 152.462C230.858 144.262 236.296 142.104 239.472 143.354C242.274 144.458 242.502 150.04 242.26 150.072Z" fill="white"/>
<path d="M240.482 161.33C240.708 161.99 240 162.596 239.682 162.706C236.54 163.798 236.658 163.206 235.976 161.888C237.43 161.423 238.958 161.233 240.482 161.33Z" fill="white"/>
<path d="M214.07 273.58C215.138 274.54 215.026 274.592 214.728 275.01C166.894 341.736 166.222 353.846 153.076 353.428C141.892 350.87 140.294 349.352 118.26 332.86C117.022 331.932 116.53 332.344 117.46 330.804C132.776 305.574 130.086 309.826 134.94 304.584C137.25 302.088 137.158 301.81 137.54 302.184C152.892 317.82 149.72 314.826 158.234 307.998C163.198 304.018 193.302 270.374 197.42 265.732C198.096 264.97 197.82 265.792 202.062 269.154C203.007 270.062 204.183 270.692 205.463 270.974C206.742 271.256 208.075 271.18 209.314 270.754C210.566 270.116 211.252 271.046 214.07 273.58Z" fill="#E7BCA5"/>
<path d="M210.432 262.292C210.435 262.167 210.463 262.045 210.514 261.931C210.565 261.817 210.638 261.715 210.728 261.629C210.818 261.544 210.925 261.477 211.041 261.432C211.158 261.388 211.282 261.367 211.406 261.37C211.53 261.373 211.653 261.401 211.767 261.452C211.881 261.503 211.983 261.576 212.069 261.666C212.154 261.756 212.221 261.863 212.266 261.979C212.31 262.096 212.331 262.219 212.328 262.344C212.332 262.473 212.31 262.602 212.262 262.723C212.215 262.843 212.143 262.953 212.052 263.044C211.96 263.136 211.851 263.208 211.731 263.256C211.611 263.304 211.482 263.327 211.352 263.323C211.223 263.32 211.096 263.29 210.978 263.235C210.861 263.181 210.756 263.103 210.67 263.006C210.583 262.91 210.518 262.797 210.477 262.674C210.436 262.551 210.421 262.421 210.432 262.292Z" fill="#C3F6C0"/>
<path d="M208.17 264.786C208.367 264.807 208.558 264.867 208.732 264.962C208.906 265.057 209.059 265.185 209.184 265.339C209.308 265.493 209.401 265.671 209.457 265.861C209.512 266.051 209.53 266.25 209.509 266.447C209.488 266.644 209.428 266.835 209.333 267.009C209.238 267.183 209.11 267.336 208.956 267.461C208.802 267.585 208.624 267.678 208.434 267.733C208.244 267.789 208.045 267.807 207.848 267.786C207.651 267.765 207.46 267.705 207.286 267.61C207.112 267.515 206.959 267.387 206.835 267.233C206.71 267.079 206.618 266.901 206.562 266.711C206.506 266.521 206.488 266.322 206.509 266.125C206.53 265.928 206.59 265.737 206.685 265.563C206.78 265.389 206.908 265.236 207.062 265.111C207.217 264.987 207.394 264.894 207.584 264.839C207.774 264.783 207.973 264.765 208.17 264.786Z" fill="#FFA87D"/>
<path d="M207.066 258.336C209.754 258.42 209.666 263.312 206.898 263.198C206.562 263.213 206.226 263.158 205.912 263.037C205.598 262.916 205.312 262.731 205.073 262.494C204.834 262.257 204.647 261.973 204.522 261.66C204.398 261.348 204.34 261.013 204.352 260.676C204.363 260.34 204.445 260.009 204.59 259.706C204.735 259.402 204.942 259.132 205.197 258.912C205.452 258.693 205.75 258.528 206.071 258.429C206.393 258.33 206.732 258.298 207.066 258.336Z" fill="#C3F6C0"/>
<path d="M202.312 255.516C202.349 255.155 202.521 254.82 202.795 254.581C203.069 254.342 203.423 254.216 203.786 254.229C204.149 254.241 204.494 254.391 204.751 254.649C205.007 254.906 205.156 255.251 205.168 255.614C204.968 257.922 202.17 256.842 202.312 255.516Z" fill="#BED4FC"/>
<path d="M202.894 263.778C203.294 263.813 203.665 264.001 203.93 264.302C204.195 264.603 204.335 264.995 204.319 265.396C204.303 265.797 204.133 266.177 203.845 266.456C203.556 266.735 203.171 266.893 202.77 266.896C202.559 266.898 202.349 266.856 202.154 266.775C201.959 266.693 201.783 266.573 201.636 266.421C201.489 266.269 201.374 266.089 201.299 265.891C201.223 265.694 201.189 265.483 201.197 265.272C201.205 265.061 201.257 264.853 201.347 264.663C201.438 264.472 201.567 264.301 201.726 264.162C201.884 264.022 202.07 263.916 202.271 263.85C202.471 263.784 202.683 263.76 202.894 263.778Z" fill="#FFEB8D"/>
<path d="M200.036 257.8C201.498 257.812 201.926 258.53 201.922 259.636C201.918 260.742 201.368 261.272 200.176 261.282C199.942 261.302 199.706 261.273 199.482 261.199C199.259 261.125 199.053 261.007 198.877 260.851C198.7 260.695 198.557 260.505 198.456 260.292C198.355 260.08 198.298 259.849 198.289 259.614C198.28 259.379 198.318 259.144 198.401 258.924C198.485 258.704 198.612 258.504 198.775 258.334C198.939 258.165 199.134 258.03 199.351 257.938C199.568 257.846 199.801 257.799 200.036 257.8Z" fill="#A19AF4"/>
<path d="M168.146 141.458C170.56 143 170.608 144.602 169.846 145.96C167.416 150.298 164.09 148.298 162.986 154.478C162.232 158.698 160.186 170.014 158.902 174.292C158.409 176.064 157.377 177.64 155.95 178.8C153.316 180.572 150.75 179.8 144.622 179.4C135.764 178.8 133.636 177.414 129.74 183.848C127.326 187.834 122.13 199.228 122.756 203.848C122.908 204.974 124.33 205.16 124.528 203.882C124.708 202.714 124.5 202.128 124.99 201.328C127.5 204.188 128.574 210.782 128.688 211.252C129.054 212.76 130.114 214.328 131.9 220.052C132.261 222.427 132.758 224.779 133.39 227.096C135.79 234.918 135.908 246.618 129.146 244.788C123.612 243.288 119.946 238.168 115.6 233.554C109.624 227.198 90.1859 206.388 90.0979 197.668C90.3724 196.113 91.0364 194.653 92.0279 193.424C95.1044 187.699 97.7776 181.767 100.028 175.67C101.108 173.032 100.61 172.07 101.818 172.084C103.645 172.258 105.467 171.703 106.887 170.54C108.307 169.377 109.21 167.7 109.4 165.874C109.436 163.432 107.388 161.288 107.456 160.894C107.546 160.36 107.94 161.206 110.902 157.606C111.484 156.274 111.636 154.793 111.336 153.37C111.25 152.418 112.97 152.97 114.722 151.458C115.922 150.422 114.866 149.016 114.086 149.334C109.264 151.3 108.04 152.026 102.77 143.61C100.598 140.142 100.542 134.73 106.264 132.48C107.681 131.934 109.244 131.901 110.682 132.388C112.121 132.875 113.343 133.851 114.136 135.146C115.598 136.712 114.67 138.146 116.608 139.378C117.114 139.79 117.71 140.077 118.348 140.213C118.986 140.35 119.648 140.334 120.278 140.165C120.908 139.997 121.49 139.681 121.974 139.244C122.459 138.807 122.833 138.262 123.066 137.652C123.576 136.134 122.748 135.262 123.772 135.262C137.454 135.262 138.512 133.85 145.128 137.062C146.032 137.502 145.564 138.824 147.63 141.306C148.255 142.199 149.08 142.934 150.039 143.453C150.998 143.971 152.065 144.258 153.155 144.29C154.245 144.323 155.327 144.101 156.316 143.642C157.305 143.182 158.172 142.498 158.85 141.644C162.12 137.7 160.726 134.264 161.678 133.884C162.236 133.66 162.57 133.484 162.814 133.922C163.526 135.2 163.71 138.622 168.146 141.458ZM163.878 148.43C164.444 147.458 163.478 146.138 160.834 148.176C159.38 149.294 161.234 150.024 161.434 150.164C162.336 149.566 163.356 149.33 163.878 148.43ZM159.858 159.156C160.023 158.943 160.112 158.681 160.112 158.411C160.112 158.141 160.023 157.879 159.858 157.666C158.306 155.716 155.826 158.284 146.016 156.276C145.296 156.128 145.68 155.876 146.056 155.53C146.73 154.902 146.234 153.544 145.148 153.956C142.404 155 140.904 159.244 142.658 160.1C143.244 160.388 143.676 159.87 143.94 159.272C144.378 158.272 144.128 158.582 147.176 162.742C149.396 165.774 153.904 168.05 156.576 164.542C157.766 162.807 158.861 161.009 159.858 159.156ZM110.53 144.744C111.482 146.904 114.822 146.344 114.544 144.708C114.414 143.952 113.878 143.908 113.304 143.868C112.348 143.788 112.088 143.226 112.634 142.438C113.264 141.528 114.312 140.438 113.46 138.748C109.46 130.786 103.348 135.908 103.77 138.326C103.77 140.608 105.254 140.652 105.622 139C105.773 138.428 106.095 137.917 106.545 137.534C106.995 137.151 107.552 136.915 108.14 136.859C108.728 136.802 109.32 136.926 109.835 137.216C110.35 137.505 110.765 137.946 111.022 138.478C112.532 141.318 108.774 140.756 110.53 144.744Z" fill="#E7BCA5"/>
<path d="M162.4 131.166C162.464 131.724 162.084 131.71 161.464 131.832C160.922 131.938 161.084 131.492 161.022 131.258C157.956 119.658 145.808 121.018 144.964 133.198C145.012 134.856 145.196 134.962 143.642 134.214C140.602 132.748 137.824 132.814 132.258 132.954C123.636 133.19 124.376 133.692 124.572 132.448C125.198 128.484 122.156 128.666 123.584 127.324C124.077 126.92 124.463 126.401 124.71 125.813C124.956 125.225 125.056 124.586 124.999 123.951C124.943 123.316 124.732 122.705 124.385 122.17C124.038 121.635 123.566 121.193 123.01 120.882C121.786 120.282 122.344 120.332 123.198 119.082C123.858 118.122 124.76 119.054 126.246 118.628C129.17 117.79 129.748 113.184 128.322 112.028C127.522 111.38 130.398 111.794 130.206 107.646C130.16 106.662 130.572 107.282 133.046 107.37C135.27 107.45 134.868 105.318 136.278 105.658C141.626 106.946 141.262 102.744 141.438 102.116C142.258 102.482 145.748 105.274 149.406 102.59C150.702 101.638 150.73 100.558 151.14 99.53C152.522 100.799 153.784 102.191 154.912 103.69C161.292 112.268 161.4 122.31 162.4 131.166ZM156.2 116.166C157.298 115.366 157.6 113.238 155.128 113.194C149.394 114.194 146.82 117.194 143.47 122.85C143.07 123.53 143.73 124.308 144.594 123.882C145.264 123.552 145.716 122.838 147.296 120.694C150.42 116.468 153.298 118.29 156.2 116.17V116.166Z" fill="#E7BCA5"/>
<path d="M152.108 125.384C156.682 124.46 160.508 130.688 159.22 136.414C157.458 144.288 148.34 144.8 146.848 133.46C146.92 129.902 148.638 126.086 152.108 125.384ZM158.42 133.888C158.702 132.688 157.528 132.784 156.056 133.042C152.072 133.742 154.228 133.96 150.28 133.284C150.057 133.256 149.832 133.307 149.643 133.428C149.454 133.549 149.314 133.733 149.246 133.947C149.178 134.161 149.187 134.392 149.272 134.599C149.357 134.807 149.512 134.979 149.71 135.084C152.632 136.592 153.848 135.124 153.992 136.684C154.156 138.426 156.84 139.214 156.678 135.94C156.6 134.51 158.03 135.532 158.42 133.888Z" fill="white"/>
<path d="M155.288 162.168C155.966 162.568 156.126 163.042 155.288 163.814C154.1 164.91 153.194 166.092 149.578 163.272C148.812 162.672 148.912 161.928 149.39 161.672C150.352 161.332 151.375 161.2 152.392 161.286C153.409 161.371 154.396 161.672 155.288 162.168Z" fill="#FF9C9F"/>
<path d="M152.614 89.114C153.61 89.2658 154.515 89.7819 155.153 90.5623C155.79 91.3427 156.116 92.332 156.066 93.3386C156.016 94.3452 155.595 95.2976 154.883 96.0113C154.172 96.725 153.221 97.1493 152.214 97.202C151.242 97.27 149.368 95.334 149.122 97.776C148.606 102.904 143.8 102.052 142.89 99.606C142.752 99.3424 142.551 99.1172 142.304 98.9504C142.058 98.7837 141.774 98.6807 141.478 98.6505C141.182 98.6204 140.883 98.6642 140.608 98.7779C140.333 98.8915 140.09 99.0716 139.902 99.302C137.902 101.44 141.078 104.432 135.966 103.12C132.778 102.302 134.506 105.432 132.016 105.048C130.858 104.87 127.774 103.37 127.878 107.108C127.884 107.785 127.744 108.456 127.468 109.075C127.192 109.694 126.786 110.246 126.278 110.694C124.5 112.938 128.206 113.75 126.478 115.798C125.416 117.066 123.104 116.042 122.224 116.974C119.738 119.604 118.466 121.25 121.824 122.898C123.398 123.67 122.928 124.954 121.598 126.086C121.29 126.322 121.041 126.627 120.873 126.976C120.704 127.326 120.62 127.71 120.628 128.098C120.636 128.486 120.735 128.867 120.917 129.21C121.1 129.552 121.36 129.847 121.678 130.07C122.992 130.936 122.526 131.596 122.212 132.038C121.967 132.5 121.597 132.884 121.145 133.146C120.693 133.409 120.177 133.54 119.654 133.524C117.194 133.374 115.992 134.282 115.072 133.058C114.053 131.971 112.836 131.089 111.486 130.458C110.612 129.926 108.378 130.368 108.916 129.314C124.66 98.514 148.526 88.524 152.614 89.114Z" fill="#666666"/>
<path d="M145.542 87.668C146.404 89.542 130.542 94.258 118.014 110.758C106.214 126.292 108.032 129.778 105.814 130.412C96.0481 133.202 100.506 143.932 100.394 144.222C95.314 157.5 95.93 155.954 94.594 158.38C93.706 160.002 90.928 160.58 88.226 158.522C84.636 155.796 88.142 156.922 93.026 138.246C94.32 133.294 92.21 134.046 91.866 135.102C90.866 138.182 92.192 137.784 85.962 152.902C85.66 153.632 85.516 153.666 84.734 153.432C83.308 153.006 83.3341 153.198 83.7581 147.89C84.1821 142.582 85.132 129.464 87.574 121.89C91.374 110.106 94.214 109.432 92.548 108.786C92.108 108.616 91.654 108.494 91.316 109.016C83.916 120.494 83.0521 131.95 81.6901 148.69C81.3981 152.276 82.204 152.78 80.49 152.634C79.7905 152.613 79.1056 152.429 78.4899 152.096C77.8742 151.764 77.3448 151.292 76.944 150.718C76.73 150.402 76.11 150.23 76.144 149.868C76.666 144.868 74.02 132.7 75.594 121.002C77.256 108.65 88.282 90.432 101.794 80.444C105.394 77.776 116.352 71.112 120.874 71.244C124.648 71.352 125.808 72.164 127.286 74.22C128.764 76.276 122.2 72.68 103.718 90.186C102.452 91.386 103.244 92.866 104.076 92.226C104.304 92.052 114.372 82.302 125.102 78.11C128.804 76.664 129.632 77.332 130.528 78.428C133.244 81.742 134.592 81.182 133.328 81.874C116.46 91.032 104.86 100.416 97.274 118.112C96.106 120.838 98.322 120.336 98.71 119.572C107.51 102.144 115.846 93.142 135.044 83.712C137.694 82.41 139.644 81.9 140.712 83.684C142.172 86.12 144.626 85.678 145.542 87.668Z" fill="#A19AF4"/>
<path d="M139.728 295.898C140.008 296.184 140.06 296.396 139.668 296.566C137.877 297.628 136.322 299.045 135.098 300.73C134.816 301.028 130.318 305.79 130.286 305.83C125.342 313.328 109.424 337.534 107.47 346.448C104.728 344.299 102.456 341.611 100.794 338.55C100.208 337.234 102.318 334.014 106.276 334.638C106.548 334.708 106.836 334.689 107.096 334.582C107.356 334.475 107.575 334.287 107.719 334.046C107.863 333.804 107.925 333.523 107.896 333.243C107.867 332.963 107.749 332.701 107.558 332.494C105.276 330.246 104.722 326.666 108.486 326.306C109.835 326.159 111.191 326.084 112.548 326.08C113.372 326.08 114.632 324.736 113.416 323.816C111.962 322.716 110.226 318.174 113.576 317.44C115.964 316.918 117.672 317 118.464 316.302C120.276 314.702 117.374 315.524 117.592 309.926C117.622 309.126 119.792 307.506 122.03 308.006C123.38 308.308 124.43 308.442 124.962 307.308C125.546 306.072 123.496 305.066 123.066 303.508C122.09 299.982 125.774 298.278 128.8 299.212C129.334 299.376 129.852 299.574 130.338 299.012C130.583 298.817 130.75 298.54 130.807 298.232C130.864 297.924 130.808 297.606 130.648 297.336C130.22 296.466 129.378 293.858 130.848 293.096C131.832 292.488 132.962 292.157 134.118 292.14C136.494 291.65 136.584 292.676 139.728 295.898Z" fill="white"/>
<path d="M123.21 64.368C125.134 66.494 123.61 69.08 122.712 68.95C117.284 68.15 109.424 72.72 104.928 75.52C96.9764 80.5261 90.1025 87.0668 84.7079 94.76C76.2378 105.777 72.1225 119.527 73.1479 133.386C73.7099 145.034 75.7479 149.242 72.5779 152.132C70.1499 154.348 67.6819 150.132 63.9199 155.642C62.8299 157.242 63.1899 160.8 58.1459 161.22C54.7359 161.504 51.8619 161.362 50.5759 164.504C48.6539 169.194 42.1439 165.534 42.3879 161.188C42.4699 159.73 44.1879 159.188 45.6899 158.554C49.6319 156.884 48.4059 155.038 51.4039 154.57C57.1319 153.676 56.6759 150.056 60.4219 147.052C64.4019 143.852 65.8879 148.666 69.1579 141.016C69.2383 140.832 69.2519 140.625 69.1963 140.432C69.1407 140.239 69.0194 140.072 68.8534 139.959C68.6874 139.846 68.487 139.794 68.287 139.813C68.087 139.832 67.8999 139.92 67.7579 140.062C67.1481 140.832 66.6123 141.659 66.1579 142.53C64.7359 144.038 62.9919 143.148 59.0859 143.952C52.6319 145.28 55.4339 145.102 51.7539 147.574C51.2921 147.935 50.7272 148.139 50.1413 148.157C49.5554 148.175 48.979 148.006 48.4959 147.674C46.1879 145.034 44.4619 141.09 47.2959 139.674C48.3279 139.164 51.0839 140.952 51.9899 137.814C52.1181 137.272 52.2764 136.738 52.4639 136.214C53.9459 133.88 57.2179 137.772 60.0339 133.38C62.0779 130.194 64.2619 132.126 65.1139 130.328C65.7519 128.982 63.4659 128.576 61.4339 129.278C58.1299 130.414 58.4019 134.278 55.2859 133.278C51.9059 132.2 51.9739 135.97 48.0179 134.154C45.2839 132.898 44.1959 134.378 42.1919 136.612C41.1219 137.812 39.9919 137.108 38.2079 136.402C34.1619 134.802 34.4539 140.302 31.4079 138.496C28.3619 136.69 26.4779 135.566 27.2239 132.768C27.7719 130.716 27.4839 129.768 29.2239 129.444C33.5619 128.644 35.1199 131.632 38.0879 128.412C42.1559 124.012 43.8379 130.834 47.7179 126.336C50.7019 122.878 54.9499 126.11 56.1859 126.21C58.2339 126.374 58.1859 125.866 61.4439 124.52C62.0619 124.266 62.5999 123.604 62.4619 123.146C61.6619 120.532 57.8759 125.066 55.5119 123.722C53.9328 122.95 52.1547 122.682 50.4181 122.953C48.6815 123.225 47.0702 124.023 45.8019 125.24C44.5279 126.492 44.7899 125.24 42.2159 124.79C38.8619 124.206 38.8719 125.21 37.6579 124.64C37.1249 124.436 36.6432 124.118 36.2466 123.708C35.8501 123.297 35.5485 122.805 35.3631 122.266C35.1777 121.726 35.113 121.152 35.1736 120.585C35.2343 120.017 35.4187 119.47 35.7139 118.982C39.3019 111.782 41.7579 120.982 47.2679 116.332C48.9059 114.952 51.0919 113.97 52.6399 115.444C53.3379 116.246 54.2677 116.812 55.301 117.062C56.3343 117.313 57.4199 117.237 58.4079 116.844C61.2819 115.352 62.0819 115.004 61.5759 113.962C61.2644 113.606 60.8251 113.386 60.3531 113.352C59.8811 113.317 59.4143 113.469 59.0539 113.776C57.2419 114.94 56.2179 115.864 54.7639 114.516C51.1039 111.116 48.6359 113.672 45.5479 110.476C42.0059 106.81 39.7579 111.792 35.6539 109.392C34.6801 108.905 33.6476 108.546 32.5819 108.324C30.7819 107.95 30.0979 109.336 29.0399 110.242C27.4499 111.604 23.8599 110.182 23.8599 106.986C23.5346 105.636 23.4667 104.237 23.6599 102.862C24.2799 100.682 25.2819 98.556 27.5179 98.918C31.0639 99.49 31.1599 102.418 36.0799 101.412C36.861 101.09 37.7027 100.941 38.5469 100.975C39.3911 101.01 40.2178 101.227 40.9699 101.612C43.1699 102.948 45.3799 103.308 49.0939 101.67C52.2159 100.296 54.2139 101.998 58.2579 103.126C62.8579 104.406 62.8419 103.026 63.7999 104.376C66.4839 108.162 69.0239 104.576 67.3379 104.118C65.0659 103.496 65.8479 101.174 62.1579 101.518C60.7474 101.557 59.3457 101.284 58.0529 100.718C56.7602 100.153 55.6084 99.3086 54.6799 98.246C53.6799 97.232 52.2339 93.14 46.8619 92.978C45.7158 93.0636 44.5729 92.7751 43.6046 92.156C42.6364 91.5368 41.8951 90.6203 41.4919 89.544C41.0001 88.5494 40.2248 87.7228 39.2638 87.1682C38.3028 86.6137 37.1991 86.3561 36.0919 86.428C31.0559 87.338 27.1579 84.228 28.4299 79.762C29.9479 74.44 31.7919 70.928 40.7819 77.058C42.0559 77.926 41.8899 79.658 44.4959 80.022C46.8959 80.346 48.2739 79.802 50.8379 82.264C51.1459 82.56 52.0379 86.482 55.8699 85.596C57.241 85.2195 58.6917 85.2478 60.0471 85.6776C61.4024 86.1074 62.6044 86.9202 63.5079 88.018C65.2859 90.318 66.0159 89.522 69.1339 90.56C69.2779 90.608 70.8479 91.574 71.2819 90.402C71.5319 89.728 71.4199 89.232 70.8819 88.922C69.6861 88.2199 68.3478 87.7954 66.9659 87.68C65.3659 87.556 62.6919 82.724 60.7459 80.48C60.3238 79.6309 60.108 78.6942 60.1159 77.746C59.5159 72.3 54.1399 76.474 51.0839 71.694C50.3819 70.598 50.5379 67.396 47.3059 67.332C45.7599 67.3 44.4879 67.64 42.9999 66.108C42.3819 65.474 41.1999 64.908 41.2979 63.188C41.2818 62.0927 41.6184 61.0213 42.2579 60.132C50.7919 49.412 48.9299 60.932 55.8059 61.988C63.0479 63.098 59.8219 70.144 65.8939 70.064C68.0019 70.036 69.4039 72.108 69.7779 73.81C70.2316 75.0543 71.0389 76.1391 72.1005 76.931C73.1621 77.723 74.4319 78.1877 75.7539 78.268C77.3539 78.41 77.4679 79.09 79.8619 82.512C80.9299 84.038 82.6499 83.06 81.2019 80.866C79.3019 77.988 78.6839 76.508 75.5599 75.91C74.7079 75.746 72.7279 75.064 72.2359 73.674C69.4559 65.814 65.0179 68.984 63.9219 66.674C60.5759 59.648 59.5379 60.906 54.8039 59.262C53.0839 58.662 60.4619 50.096 62.9579 55.676C64.9159 60.058 67.8279 56.434 70.5579 59.55C72.2099 61.434 71.8599 63.894 75.0959 64.618C75.8306 64.6782 76.5306 64.956 77.1066 65.4159C77.6827 65.8758 78.1086 66.4969 78.3299 67.2C79.3299 72.02 83.7299 69.754 85.7099 73.666C86.8699 75.966 88.7439 74.3 88.2119 73.328C84.7079 66.914 81.1939 69.774 80.6419 66.598C80.1739 63.914 79.0419 65.398 79.6179 62.442C80.6559 57.012 75.4599 57.422 75.4899 54.052C75.5139 51.314 73.0739 51.148 70.6019 49.27C70.2363 49.0385 69.929 48.7259 69.7036 48.3564C69.4782 47.987 69.3408 47.5707 69.3021 47.1397C69.2635 46.7087 69.3245 46.2745 69.4805 45.8709C69.6366 45.4673 69.8834 45.1049 70.2019 44.812C72.7459 42.666 72.6019 40.228 75.8919 41.294C80.4319 42.76 77.1639 48.218 84.4239 50.03C88.0979 50.948 84.7859 56.116 89.3919 57.486C91.4599 58.102 91.4999 58.12 91.4079 60.318C91.2299 64.59 93.4079 64.166 95.2799 66.562C96.4579 68.064 98.0919 66.866 97.1699 65.264C95.3859 62.166 93.6859 63.232 93.8979 61.212C94.3359 57.024 92.4979 57.166 93.8299 54.526C97.0299 48.126 91.1159 48.478 91.9859 45.142C92.7319 42.278 90.7499 41.428 89.0719 40.118C83.9759 36.134 95.6199 29.974 97.8719 33.834C99.6339 36.854 96.0719 38.782 100.562 41.484C103.316 43.142 105.674 45.868 105.236 48.992C104.636 53.318 105.934 53.226 107.698 55.672C108.954 57.414 109.206 58.102 108.726 59.258C108.501 59.7441 108.387 60.2747 108.395 60.8105C108.402 61.3462 108.529 61.8735 108.767 62.3535C109.006 62.8334 109.349 63.2537 109.771 63.5834C110.193 63.913 110.684 64.1436 111.208 64.258C111.98 64.502 113.784 64.62 114.528 66.134C115.848 68.824 119.652 63.482 111.882 61.782C109.482 61.256 112.268 60.822 111.082 56.818C110.788 55.818 109.282 53.628 111.592 51.818C113.714 50.166 113.02 47.378 111.748 45.004C110.334 42.366 113.382 40.622 108.864 37.856C108.322 37.5188 107.881 37.0423 107.586 36.4764C107.292 35.9105 107.154 35.2758 107.189 34.6387C107.223 34.0016 107.428 33.3853 107.782 32.8544C108.135 32.3234 108.625 31.8971 109.2 31.62C116.18 28.438 119.4 31.368 118.656 34.52C117.456 39.674 123.34 39.496 122.098 47.338C121.87 48.772 119.776 50.682 121.882 53.538C126.376 59.65 120.444 61.31 123.21 64.368Z" fill="#666666"/>
<path d="M119.114 135.444C119.644 135.444 121.592 135.186 121.202 136.564C121.101 136.942 120.899 137.286 120.617 137.558C120.336 137.83 119.986 138.02 119.604 138.108C119.223 138.195 118.824 138.178 118.452 138.056C118.08 137.935 117.748 137.714 117.492 137.418C117.176 137.068 117.232 136.358 117.196 135.818C117.16 135.278 119.118 135.564 119.114 135.444Z" fill="#666666"/>
<path d="M107.336 152.188C110.776 154.204 109.236 157.51 105.984 158.87C102 160.536 109.198 164.47 106.184 167.966C104.882 169.476 102.254 170.664 100.944 169.054C99.8601 167.72 100.208 167.394 98.7661 167.412C98.2741 167.412 97.9661 168.318 97.8801 168.612C97.7664 169.211 97.5013 169.77 97.1102 170.238C96.7191 170.705 96.2149 171.065 95.6457 171.282C95.0764 171.5 94.4609 171.568 93.8578 171.48C93.2547 171.393 92.6841 171.152 92.2001 170.782C91.4524 170.239 90.9359 169.434 90.7529 168.529C90.57 167.623 90.7338 166.681 91.2121 165.89C92.1461 164.798 93.5141 164.974 93.7341 162.09C93.7901 161.358 95.1101 160.89 95.9221 159.89C99.5601 155.382 101.07 145.422 102.09 146.8C105.212 151.02 104.672 150.626 107.336 152.188Z" fill="#666666"/>
<path d="M344.616 109.296C344.314 91.254 323.728 99.436 305.798 103.12C217.686 121.22 219.236 123.568 219.186 122.148C218.702 108.274 218.856 11.522 218.64 10.65C218.424 9.77801 217.394 9.76001 217.298 10.74C216.466 19.18 217.452 123.104 216.898 123.158C216.178 123.228 209.924 124.68 209.098 129.688C207.912 136.9 209.716 220.966 209.734 221.302C209.818 222.768 210.424 224.976 211.782 225.548C212.842 225.996 207.276 244.33 206.382 250.96C206.028 253.582 203.546 247.26 196.596 256.866C193.52 261.118 196.686 263.018 196.098 263.72C191.68 268.986 184.61 276.222 183.646 277.298C167.188 295.678 173.324 292.41 172 274.756C170.55 255.408 165.082 258.418 154.832 228.888C152.044 220.854 147.77 217.688 144.946 213.662C141.288 208.444 140.042 204.414 135.85 199.462C129.07 191.462 127.156 193.032 128.036 191.298C130.906 185.648 132.818 180.498 137.532 180.78C154.266 181.76 158.958 185.398 162.108 169.114C165.014 154.08 164.334 152.914 166.856 151.184C169.298 149.514 170.928 148.712 171.98 146.202C174.512 140.17 165.326 139.138 167.24 136.824C168.702 135.054 168.064 131.252 164.912 131.21C162.154 131.172 166.856 115.438 154.214 99.696C153.614 98.944 154.784 99.176 155.844 98.33C157.099 97.295 157.931 95.837 158.185 94.2306C158.439 92.6243 158.097 90.9805 157.223 89.609C156.349 88.2374 155.004 87.2328 153.441 86.7843C151.878 86.3358 150.204 86.4744 148.736 87.174C147.714 87.634 147.872 86.052 146.416 84.774C145.45 83.93 143.46 83.282 143.062 82.586C142.604 81.8147 141.95 81.1786 141.166 80.7429C140.382 80.3072 139.497 80.0874 138.6 80.106C138.021 80.3297 137.389 80.3786 136.783 80.2467C136.176 80.1149 135.622 79.8079 135.188 79.364C134.409 78.7639 133.66 78.1244 132.946 77.448C131.04 75.29 130.046 75.448 130.008 74.95C129.706 70.782 125.53 70.606 126.176 68.95C127.868 64.602 124.256 63.072 125.176 61.778C127.106 59.058 125.49 54.236 123.856 52.154C122.768 50.768 124.144 49.876 124.366 48.808C124.826 46.7898 124.802 44.6916 124.299 42.684C123.795 40.6764 122.824 38.816 121.466 37.254C120.208 35.854 121.362 35.3 121.156 34.328C120.64 31.91 120.208 28.94 117.57 28.188C114.341 27.3235 110.901 27.7707 108 29.432C107.069 29.9381 106.284 30.6756 105.721 31.5735C105.157 32.4713 104.835 33.4991 104.784 34.5577C104.734 35.6164 104.957 36.6702 105.433 37.6175C105.908 38.5648 106.619 39.3736 107.498 39.966C109.064 40.966 109.28 41.222 109.112 41.934C108.474 44.648 110.074 46.584 110.622 48.118C111.114 49.496 110.172 49.622 108.542 52.218C108.352 52.522 108.342 52.636 108.032 52.33C107.803 52.0926 107.641 51.7989 107.562 51.4785C107.483 51.1582 107.49 50.8227 107.582 50.506C108.982 41.518 100.25 39.458 100.606 37.918C101.074 35.892 100.606 31.272 97.2061 30.318C91.8461 28.81 78.8701 36.384 89.4401 43.466C90.5821 44.232 88.0801 47.232 91.9701 50.24C93.1701 51.164 92.6221 51.518 91.3701 55.022C91.2661 55.308 91.1701 55.462 90.8161 55.422C89.5181 55.27 89.0761 54.822 89.0521 53.51C88.9141 46.126 82.3981 48.974 81.3541 44.744C79.6981 38.05 73.0301 37.426 70.8941 40.404C70.0741 41.548 69.0121 42.52 68.0941 43.592C67.6421 44.1823 67.3183 44.8603 67.1433 45.5828C66.9683 46.3054 66.9459 47.0565 67.0777 47.7881C67.2094 48.5198 67.4924 49.2159 67.9085 49.832C68.3246 50.448 68.8646 50.9705 69.4941 51.366C72.1341 53.192 73.2021 53.104 73.1521 54.222C72.9241 59.18 78.3021 57.764 77.3181 62.35C77.1361 63.208 76.7181 62.398 75.3981 62.24C73.2121 61.978 74.9541 59.072 69.7841 56.302C67.5681 55.116 65.4061 56.702 65.0041 54.816C64.4501 52.226 59.4501 50.16 56.4601 52.924C52.7201 56.384 53.3301 57.584 52.5401 56.634C50.5521 54.234 49.3921 52.912 47.6701 53.274C43.8901 54.074 42.8181 55.246 40.2041 59.036C36.1361 64.932 42.4681 70 46.1281 69.686C47.6121 69.56 47.9281 69.686 48.0621 70.428C48.5201 72.2253 49.5533 73.8235 51.0042 74.979C52.455 76.1345 54.2439 76.7838 56.0981 76.828C59.2861 77.05 56.0701 78.574 59.3381 82.782C59.4405 82.9312 59.5308 83.0884 59.6081 83.252C59.4133 83.272 59.2169 83.272 59.0221 83.252C55.7481 82.518 54.4441 84.518 53.6401 82.482C52.8959 81.0341 51.7455 79.8347 50.3299 79.0308C48.9142 78.2269 47.2948 77.8534 45.6701 77.956C43.3281 77.956 44.3361 76.37 41.8701 75.056C32.2321 69.926 28.7641 70.056 26.1481 79.298C25.6009 80.7355 25.5807 82.3204 26.0911 83.7714C26.6015 85.2224 27.6095 86.4456 28.9361 87.224C34.5081 91.008 37.4061 86.366 39.3721 90.762C40.0843 92.1514 41.1771 93.3094 42.5228 94.1009C43.8686 94.8924 45.4117 95.2847 46.9721 95.232C50.4541 95.458 51.0761 97.3 52.2361 98.818C52.5061 99.172 52.1321 99.218 51.9321 99.184C50.1052 99.1473 48.294 99.5276 46.6361 100.296C42.5601 101.754 41.8821 97.988 37.3661 99.014C35.3041 99.482 33.7661 99.814 32.3241 98.718C26.1661 94.062 19.6481 97.304 21.6781 108.384C22.4781 112.784 28.9361 114.638 31.4481 111.13C32.8961 109.11 35.7641 113.566 40.3581 111.958C42.0201 111.378 42.6841 111.006 43.4261 111.676C46.0261 114.018 46.8001 113.696 46.3981 114.166C42.7401 118.45 39.2981 109.936 34.7841 116.05C28.8441 124.096 36.9501 126.01 36.4201 126.896C35.2581 128.846 33.2321 126.268 28.7081 127.296C26.7081 127.75 25.1781 128.296 24.7221 133.274C24.1681 139.35 33.7641 144.028 36.4721 138.8C36.7361 138.294 37.0421 138.486 37.8361 138.856C43.8121 141.646 44.6961 135.33 46.9281 136.214C48.5461 136.856 49.3581 136.668 49.9681 137.286C48.9961 137.772 45.7561 135.96 43.6481 140.936C43.4944 142.263 43.6292 143.607 44.0435 144.877C44.4577 146.147 45.1415 147.313 46.0481 148.294C50.8721 153.868 54.7581 146.238 57.6941 146.682C56.6391 147.713 55.7481 148.899 55.0521 150.2C54.3101 151.744 51.3821 152.272 50.8081 152.426C47.1321 153.426 47.5181 155.084 45.7641 155.984C44.1461 156.816 38.5161 158.212 40.2781 163.272C42.0401 168.332 46.8121 170 49.7361 168.512C53.8661 166.418 51.8441 163.73 55.3901 163.73C60.8181 163.73 64.1541 162.462 65.8421 157.316C66.8001 154.394 68.5161 155.19 71.3041 155.176C72.7935 154.856 74.1349 154.052 75.1181 152.888C75.3181 152.566 75.3181 152.55 76.5601 153.41C79.9961 155.81 81.6041 153.938 82.7601 154.864C84.0621 155.906 84.8401 155.22 84.7601 156.292C84.6958 157.003 84.83 157.718 85.1477 158.358C85.4655 158.997 85.9544 159.536 86.5601 159.914C87.8461 160.83 89.2546 161.561 90.7441 162.084C91.3441 162.252 91.3941 162.684 90.8801 163.006C90.2445 163.443 89.7015 164.001 89.2824 164.648C88.8633 165.295 88.5763 166.019 88.4381 166.778C88.2852 167.608 88.3191 168.462 88.5374 169.277C88.7557 170.092 89.1529 170.849 89.7001 171.491C90.2473 172.134 90.9308 172.646 91.7009 172.992C92.471 173.337 93.3083 173.507 94.1521 173.488C94.9966 173.667 95.8754 173.584 96.6718 173.251C97.4681 172.918 98.1442 172.351 98.6101 171.624C98.8881 171.186 98.9721 171.684 98.9561 171.75C98.1941 175.096 99.3861 171.874 94.1081 184.25C93.2741 186.202 86.2761 186.986 79.6761 195.482C75.5901 200.74 73.5041 198.81 70.1441 203.85C66.7841 208.89 62.1541 210.07 57.4461 214.532C50.7661 220.864 49.2881 224.918 46.5061 230.332C43.3941 236.382 44.9421 241.886 44.8841 243.552C44.6841 249.058 45.9741 250.808 47.3621 256.498C47.6783 260.299 47.7051 264.119 47.4421 267.924C47.1861 287.014 52.1421 288.15 55.4621 300.896C57.3521 308.146 57.3061 313.4 59.0761 320.896C62.4321 335.096 67.9341 340.02 65.9021 346.24C62.5301 356.56 63.6021 358.44 62.8461 363.624C62.3501 367.024 57.1981 381.824 57.5661 383.32C57.9161 384.746 59.7661 384.606 60.0921 383.096C60.8341 379.696 61.2201 379.032 63.6541 370.66C67.1381 358.684 64.9121 360.134 66.9221 352.416C70.5521 338.47 68.9041 342.31 61.9581 322.134C59.9181 316.214 60.8161 307.648 54.8681 291.24C50.6514 282.416 49.0728 272.562 50.3221 262.862C51.2261 253.53 43.7861 243.736 48.7221 231.494C50.2662 228.141 52.1196 224.939 54.2581 221.93C60.0221 212.93 67.2841 212.242 71.5701 205.706C74.9501 200.552 77.5081 202.334 81.5301 196.618C84.2026 193.176 87.749 190.514 91.8001 188.908C87.6401 197.236 81.2161 197.882 108.368 229.644C109.968 231.514 111.178 231.956 113.794 235.222C128.314 253.354 137.478 249.296 137.254 235.578C137.21 232.872 133.556 217.74 133.544 217.7C132.862 215.366 130.726 211.356 130.5 208.934C130.1 204.714 125.658 198.256 125.938 197.378C126.938 194.262 127.044 194.124 127.538 194.626C132.46 199.68 134.414 201.026 137.188 205.706C139.146 209.541 141.466 213.181 144.114 216.576C155.114 228.928 150.792 231.32 159.342 247.43C170.096 267.694 170.068 266.362 169.304 292.614C169.256 294.228 155.944 306.91 154.756 308.014C149.878 312.508 150.956 312.136 144.222 305.918C143.72 305.456 143.692 305.484 144.178 299.942C144.596 295.16 133.758 287.986 128.778 279.668C123.228 270.41 117.912 268.728 111.466 259.058C103.764 247.502 92.7101 229.502 79.1361 223.68C78.1361 223.254 77.4181 222.86 76.7741 223.318C76.6494 223.396 76.5471 223.505 76.4773 223.635C76.4076 223.764 76.3727 223.91 76.3761 224.057C76.3795 224.204 76.4212 224.347 76.4969 224.474C76.5726 224.6 76.6799 224.704 76.8081 224.776C77.8555 225.5 78.9575 226.142 80.1041 226.696C95.4421 234.266 109.358 262.696 118.202 270.524C120.953 273.137 123.439 276.014 125.626 279.114C129.558 285.634 132.938 288.064 133.826 289.81C130.426 290.682 127.096 291.86 127.706 295.61C127.87 296.626 127.774 296.428 126.534 296.566C125.582 296.581 124.647 296.817 123.801 297.254C122.955 297.691 122.221 298.318 121.658 299.085C121.094 299.852 120.716 300.74 120.552 301.678C120.388 302.616 120.444 303.579 120.714 304.492C121.16 306.244 119.302 304.438 115.832 308.154C114.88 309.174 114.892 310.366 115.406 313.882C115.5 314.528 115.406 314.464 112.952 315.03C111.867 315.315 110.908 315.952 110.225 316.841C109.541 317.731 109.173 318.822 109.178 319.944C109.622 323.132 110.25 323.534 109.426 323.624C106.932 323.898 105.114 324.354 103.876 326.74C102.328 329.724 104.676 331.922 103.404 332.318C95.3101 334.858 103.07 341.77 92.4041 328.94C83.7301 318.506 83.5801 319.54 77.3221 306.85C72.4141 296.89 69.2661 301.05 56.0181 277.302C55.4441 276.122 53.6041 276.95 54.2181 278.45C59.5321 291.6 68.0721 298.598 72.0881 303.098C75.1041 306.476 75.0481 308.008 78.8601 314.974C81.3261 319.476 102.192 345.986 107.274 349.36C115.17 354.602 121.22 337.76 123.526 339.53C141.826 353.508 155.8 364.568 168.662 346.264C172.462 340.85 170.738 342.646 172.172 347.136C174.61 354.77 174.032 358.576 173.85 364.46C173.702 369.214 175.266 369.642 176.45 374C177.106 376.438 177.764 380.818 177.908 381.342C178.246 382.578 180.108 382.586 180.17 381.228C180.019 379.295 179.719 377.377 179.274 375.49C178.614 371.008 175.978 368.576 176.186 364.026C176.724 358.602 176.204 353.124 174.656 347.898C174.146 346.36 172.656 340.966 173.456 339.726C191.284 312.14 216.216 275.456 217.056 275.944C217.732 276.344 217.69 378.744 218.092 383.374C218.081 383.506 218.098 383.639 218.14 383.765C218.183 383.89 218.251 384.006 218.339 384.104C218.428 384.203 218.536 384.282 218.657 384.337C218.778 384.392 218.908 384.422 219.041 384.425C219.173 384.428 219.305 384.403 219.428 384.353C219.551 384.303 219.662 384.228 219.755 384.134C219.848 384.039 219.92 383.926 219.968 383.802C220.016 383.679 220.037 383.547 220.032 383.414C220.032 382.374 219.654 376.848 219.632 374.174C219.632 374.132 220.336 354.684 219.752 333.02C218.612 290.786 219.352 298.22 219.19 274.8C219.19 273.668 221.442 272.9 221.206 270.366C220.996 268.102 222.95 268.648 227.494 262.166C229.932 258.686 229.518 256.902 231.808 253.132C233.466 250.408 233.032 249.732 233.956 250.372C235.92 251.716 237.356 252.024 241.156 250.954C243.312 250.354 243.12 248.932 245.08 246.216C246.127 244.77 246.778 243.076 246.97 241.301C247.161 239.526 246.886 237.732 246.172 236.096C245.55 234.852 246.708 235.496 247.428 232.952C247.85 231.454 247.456 231.418 249.328 231.8C252.212 232.505 255.161 232.907 258.128 233C332.188 241.248 343.316 246.546 344.764 230.166C345.782 218.224 344.814 121.18 344.616 109.296ZM165.632 133.322C165.825 133.523 165.974 133.761 166.071 134.022C166.168 134.284 166.21 134.562 166.194 134.84C166.234 135.668 165.658 136.378 165.394 135.74C165.099 135.034 164.862 134.305 164.686 133.56C164.6 132.86 165.44 133.158 165.632 133.322ZM154.92 103.69C161.28 112.218 161.398 122.314 162.408 131.166C162.472 131.724 162.092 131.71 161.472 131.832C160.93 131.938 161.092 131.492 161.03 131.258C157.964 119.658 145.816 121.018 144.972 133.198C145.02 134.856 145.204 134.962 143.65 134.214C140.61 132.748 137.832 132.814 132.266 132.954C123.644 133.19 124.384 133.692 124.58 132.448C125.206 128.484 122.164 128.666 123.592 127.324C124.085 126.92 124.471 126.401 124.718 125.813C124.965 125.225 125.064 124.586 125.007 123.951C124.951 123.316 124.74 122.705 124.393 122.17C124.047 121.635 123.575 121.193 123.018 120.882C121.794 120.282 122.352 120.332 123.206 119.082C123.866 118.122 124.768 119.054 126.254 118.628C129.178 117.79 129.756 113.184 128.33 112.028C127.53 111.38 130.406 111.794 130.214 107.646C130.168 106.662 130.58 107.282 133.054 107.37C135.278 107.45 134.876 105.318 136.286 105.658C141.634 106.946 141.27 102.744 141.446 102.116C142.266 102.482 145.756 105.274 149.414 102.59C150.71 101.638 150.738 100.558 151.148 99.53C152.521 100.807 153.783 102.199 154.92 103.69ZM159.22 136.414C157.456 144.286 148.34 144.8 146.848 133.46C146.92 129.918 148.638 126.086 152.108 125.384C156.682 124.46 160.5 130.7 159.22 136.414ZM152.62 89.114C153.616 89.2658 154.521 89.7819 155.159 90.5623C155.796 91.3427 156.122 92.332 156.072 93.3386C156.022 94.3452 155.601 95.2976 154.889 96.0113C154.178 96.725 153.227 97.1493 152.22 97.202C151.248 97.27 149.374 95.334 149.128 97.776C148.612 102.904 143.806 102.052 142.896 99.606C142.758 99.3424 142.557 99.1172 142.31 98.9505C142.064 98.7837 141.78 98.6807 141.484 98.6506C141.188 98.6204 140.889 98.6642 140.614 98.7779C140.339 98.8915 140.096 99.0716 139.908 99.302C137.908 101.44 141.084 104.432 135.972 103.12C132.784 102.302 134.512 105.432 132.022 105.048C130.864 104.87 127.78 103.37 127.884 107.108C127.89 107.785 127.75 108.456 127.474 109.075C127.198 109.694 126.792 110.246 126.284 110.694C124.506 112.938 128.212 113.75 126.484 115.798C125.422 117.066 123.11 116.042 122.23 116.974C119.744 119.604 118.472 121.25 121.83 122.898C123.404 123.67 122.934 124.954 121.604 126.086C121.296 126.322 121.047 126.627 120.879 126.976C120.71 127.326 120.626 127.71 120.634 128.098C120.642 128.486 120.741 128.867 120.924 129.21C121.106 129.552 121.367 129.847 121.684 130.07C122.998 130.936 122.532 131.596 122.218 132.038C121.973 132.5 121.603 132.884 121.151 133.146C120.699 133.409 120.183 133.54 119.66 133.524C117.2 133.374 115.998 134.282 115.078 133.058C114.059 131.971 112.842 131.089 111.492 130.458C110.618 129.926 108.384 130.368 108.922 129.314C124.66 98.514 148.526 88.524 152.614 89.114H152.62ZM121.2 136.564C121.099 136.942 120.897 137.286 120.616 137.558C120.334 137.83 119.984 138.02 119.602 138.108C119.221 138.195 118.822 138.178 118.45 138.056C118.078 137.935 117.746 137.714 117.49 137.418C117.174 137.068 117.23 136.358 117.194 135.818C117.158 135.278 119.116 135.558 119.112 135.438C119.644 135.43 121.6 135.186 121.2 136.564ZM73.1481 133.386C73.7041 145.06 75.7481 149.242 72.5781 152.132C70.1501 154.348 67.6821 150.132 63.9201 155.642C62.8301 157.242 63.1901 160.8 58.1461 161.22C54.7361 161.504 51.8621 161.362 50.5761 164.504C48.6541 169.194 42.1441 165.534 42.3881 161.188C42.4701 159.73 44.1881 159.188 45.6901 158.554C49.6321 156.884 48.4061 155.038 51.4041 154.57C57.1321 153.676 56.6761 150.056 60.4221 147.052C64.4021 143.852 65.8881 148.666 69.1581 141.016C69.2385 140.832 69.2521 140.625 69.1965 140.432C69.1409 140.239 69.0196 140.072 68.8536 139.959C68.6875 139.846 68.4872 139.794 68.2872 139.813C68.0872 139.832 67.9001 139.92 67.7581 140.062C67.1482 140.832 66.6125 141.659 66.1581 142.53C64.7361 144.038 62.9921 143.148 59.0861 143.952C52.6321 145.28 55.4341 145.102 51.7541 147.574C51.2923 147.935 50.7274 148.139 50.1415 148.157C49.5556 148.175 48.9792 148.006 48.4961 147.674C46.1881 145.034 44.4621 141.09 47.2961 139.674C48.3281 139.164 51.0841 140.952 51.9901 137.814C52.1183 137.272 52.2765 136.738 52.4641 136.214C53.9461 133.88 57.2181 137.772 60.0341 133.38C62.0781 130.194 64.2621 132.126 65.1141 130.328C65.7521 128.982 63.4661 128.576 61.4341 129.278C58.1301 130.414 58.4021 134.278 55.2861 133.278C51.9061 132.2 51.9741 135.97 48.0181 134.154C45.2841 132.898 44.1961 134.378 42.1921 136.612C41.1221 137.812 39.9921 137.108 38.2081 136.402C34.1621 134.802 34.4541 140.302 31.4081 138.496C28.3621 136.69 26.4781 135.566 27.2241 132.768C27.7721 130.716 27.4841 129.768 29.2241 129.444C33.5621 128.644 35.1201 131.632 38.0881 128.412C42.1561 124.012 43.8381 130.834 47.7181 126.336C50.7021 122.878 54.9501 126.11 56.1861 126.21C58.2341 126.374 58.1861 125.866 61.4441 124.52C62.0621 124.266 62.6001 123.604 62.4621 123.146C61.6621 120.532 57.8761 125.066 55.5121 123.722C53.9329 122.95 52.1549 122.682 50.4183 122.953C48.6817 123.225 47.0704 124.023 45.8021 125.24C44.5281 126.492 44.7901 125.24 42.2161 124.79C38.8621 124.206 38.8721 125.21 37.6581 124.64C37.1251 124.436 36.6434 124.118 36.2468 123.708C35.8503 123.297 35.5487 122.805 35.3633 122.266C35.1779 121.726 35.1132 121.152 35.1738 120.585C35.2344 120.017 35.4189 119.47 35.7141 118.982C39.3021 111.782 41.7581 120.982 47.2681 116.332C48.9061 114.952 51.0921 113.97 52.6401 115.444C53.3381 116.246 54.2679 116.812 55.3012 117.062C56.3345 117.313 57.4201 117.237 58.4081 116.844C61.2821 115.352 62.0821 115.004 61.5761 113.962C61.2646 113.606 60.8253 113.386 60.3533 113.352C59.8813 113.317 59.4145 113.469 59.0541 113.776C57.2421 114.94 56.2181 115.864 54.7641 114.516C51.1041 111.116 48.6361 113.672 45.5481 110.476C42.0061 106.81 39.7581 111.792 35.6541 109.392C34.6803 108.905 33.6478 108.546 32.5821 108.324C30.7821 107.95 30.0981 109.336 29.0401 110.242C27.4501 111.604 23.8601 110.182 23.8601 106.986C23.5347 105.636 23.4669 104.237 23.6601 102.862C24.2801 100.682 25.2821 98.556 27.5181 98.918C31.0641 99.49 31.1601 102.418 36.0801 101.412C36.8612 101.09 37.7029 100.941 38.5471 100.975C39.3913 101.01 40.2179 101.227 40.9701 101.612C43.1701 102.948 45.3801 103.308 49.0941 101.67C52.2161 100.296 54.2141 101.998 58.2581 103.126C62.8581 104.406 62.8421 103.026 63.8001 104.376C66.4841 108.162 69.0241 104.576 67.3381 104.118C65.0661 103.496 65.8481 101.174 62.1581 101.518C60.7476 101.557 59.3458 101.284 58.0531 100.718C56.7604 100.153 55.6086 99.3086 54.6801 98.246C53.6801 97.232 52.2341 93.14 46.8621 92.978C45.716 93.0636 44.5731 92.7751 43.6048 92.156C42.6366 91.5368 41.8952 90.6203 41.4921 89.544C41.0003 88.5494 40.225 87.7228 39.264 87.1682C38.303 86.6137 37.1993 86.3561 36.0921 86.428C31.0561 87.338 27.1581 84.228 28.4301 79.762C29.9481 74.44 31.7921 70.928 40.7821 77.058C42.0561 77.926 41.8901 79.658 44.4961 80.022C46.8961 80.346 48.2741 79.802 50.8381 82.264C51.1461 82.56 52.0381 86.482 55.8701 85.596C57.2412 85.2195 58.6919 85.2478 60.0473 85.6776C61.4026 86.1074 62.6046 86.9202 63.5081 88.018C65.2861 90.318 66.0161 89.522 69.1341 90.56C69.2781 90.608 70.8481 91.574 71.2821 90.402C71.5321 89.728 71.4201 89.232 70.8821 88.922C69.6863 88.2199 68.348 87.7954 66.9661 87.68C65.3661 87.556 62.6921 82.724 60.7461 80.48C60.324 79.6309 60.1082 78.6942 60.1161 77.746C59.5161 72.3 54.1401 76.474 51.0841 71.694C50.3821 70.598 50.5381 67.396 47.3061 67.332C45.7601 67.3 44.4881 67.64 43.0001 66.108C42.3821 65.474 41.2001 64.908 41.2981 63.188C41.282 62.0927 41.6186 61.0213 42.2581 60.132C50.7921 49.412 48.9301 60.932 55.8061 61.988C63.0481 63.098 59.8221 70.144 65.8941 70.064C68.0021 70.036 69.4041 72.108 69.7781 73.81C70.2318 75.0543 71.0391 76.1391 72.1007 76.931C73.1623 77.723 74.4321 78.1877 75.7541 78.268C77.3541 78.41 77.4681 79.09 79.8621 82.512C80.9301 84.038 82.6501 83.06 81.2021 80.866C79.3021 77.988 78.6841 76.508 75.5601 75.91C74.7081 75.746 72.7281 75.064 72.2361 73.674C69.4561 65.814 65.0181 68.984 63.9221 66.674C60.5761 59.648 59.5381 60.906 54.8041 59.262C53.0841 58.662 60.4621 50.096 62.9581 55.676C64.9161 60.058 67.8281 56.434 70.5581 59.55C72.2101 61.434 71.8601 63.894 75.0961 64.618C75.8308 64.6782 76.5308 64.956 77.1068 65.4159C77.6829 65.8758 78.1087 66.4969 78.3301 67.2C79.3301 72.02 83.7301 69.754 85.7101 73.666C86.8701 75.966 88.7441 74.3 88.2121 73.328C84.7081 66.914 81.1941 69.774 80.6421 66.598C80.1741 63.914 79.0421 65.398 79.6181 62.442C80.6561 57.012 75.4601 57.422 75.4901 54.052C75.5141 51.314 73.0741 51.148 70.6021 49.27C70.2365 49.0385 69.9291 48.7259 69.7038 48.3564C69.4784 47.987 69.341 47.5707 69.3023 47.1397C69.2637 46.7087 69.3247 46.2745 69.4807 45.8709C69.6368 45.4673 69.8836 45.1049 70.2021 44.812C72.7461 42.666 72.6021 40.228 75.8921 41.294C80.4321 42.76 77.1641 48.218 84.4241 50.03C88.0981 50.948 84.7861 56.116 89.3921 57.486C91.4601 58.102 91.5001 58.12 91.4081 60.318C91.2301 64.59 93.4081 64.166 95.2801 66.562C96.4581 68.064 98.0921 66.866 97.1701 65.264C95.3861 62.166 93.6861 63.232 93.8981 61.212C94.3361 57.024 92.4981 57.166 93.8301 54.526C97.0301 48.126 91.1161 48.478 91.9861 45.142C92.7321 42.278 90.7501 41.428 89.0721 40.118C83.9761 36.134 95.6201 29.974 97.8721 33.834C99.6341 36.854 96.0721 38.782 100.562 41.484C103.316 43.142 105.674 45.868 105.236 48.992C104.636 53.318 105.934 53.226 107.698 55.672C108.954 57.414 109.206 58.102 108.726 59.258C108.501 59.7441 108.388 60.2747 108.395 60.8105C108.402 61.3462 108.529 61.8735 108.768 62.3535C109.006 62.8334 109.349 63.2537 109.771 63.5834C110.194 63.913 110.685 64.1436 111.208 64.258C111.98 64.502 113.784 64.62 114.528 66.134C115.848 68.824 119.652 63.482 111.882 61.782C109.482 61.256 112.268 60.822 111.082 56.818C110.788 55.818 109.282 53.628 111.592 51.818C113.714 50.166 113.02 47.378 111.748 45.004C110.334 42.366 113.382 40.622 108.864 37.856C108.322 37.5188 107.881 37.0423 107.587 36.4764C107.292 35.9105 107.155 35.2758 107.189 34.6387C107.223 34.0016 107.428 33.3853 107.782 32.8544C108.136 32.3234 108.625 31.8971 109.2 31.62C116.18 28.438 119.4 31.368 118.656 34.52C117.456 39.674 123.34 39.496 122.098 47.338C121.87 48.772 119.772 50.684 121.882 53.538C126.382 59.634 120.446 61.278 123.212 64.338C125.136 66.464 123.612 69.05 122.714 68.92C117.286 68.12 109.426 72.69 104.93 75.49C96.9778 80.495 90.1037 87.0359 84.7101 94.73C76.2383 105.758 72.1226 119.518 73.1481 133.386ZM88.2501 158.478C84.6641 155.746 88.1661 156.878 93.0501 138.202C94.3441 133.25 92.2341 134.002 91.8901 135.058C90.8901 138.14 92.2161 137.74 85.9861 152.858C85.6841 153.588 85.5401 153.622 84.7581 153.388C83.3321 152.964 83.3581 153.154 83.7821 147.846C84.2061 142.538 85.1561 129.422 87.5981 121.846C91.3981 110.106 94.2221 109.432 92.5561 108.786C92.1161 108.616 91.6621 108.494 91.3241 109.016C83.9241 120.494 83.0601 131.95 81.6981 148.69C81.4061 152.276 82.2121 152.78 80.4981 152.634C79.7986 152.613 79.1136 152.429 78.4979 152.096C77.8822 151.764 77.3529 151.292 76.9521 150.718C76.7381 150.402 76.1181 150.23 76.1521 149.868C76.6741 144.868 74.0281 132.7 75.6021 121.002C77.2641 108.65 88.2901 90.432 101.802 80.444C105.402 77.776 116.36 71.112 120.882 71.244C124.656 71.352 125.816 72.164 127.294 74.22C128.772 76.276 122.2 72.68 103.718 90.186C102.452 91.386 103.244 92.866 104.076 92.226C104.304 92.052 114.372 82.302 125.102 78.11C128.804 76.664 129.632 77.332 130.528 78.428C133.244 81.742 134.592 81.182 133.328 81.874C116.46 91.032 104.86 100.416 97.2741 118.112C96.1061 120.838 98.3221 120.336 98.7101 119.572C107.51 102.144 115.846 93.142 135.044 83.712C137.694 82.41 139.644 81.894 140.712 83.684C142.166 86.134 144.626 85.684 145.542 87.668C146.404 89.542 130.542 94.258 118.014 110.758C106.214 126.292 108.032 129.778 105.814 130.412C96.0481 133.202 100.506 143.932 100.394 144.222C95.3141 157.5 95.9261 155.952 94.5941 158.38C93.7201 159.98 90.9321 160.55 88.2421 158.502L88.2501 158.478ZM98.7661 167.388C98.2741 167.388 97.9661 168.294 97.8801 168.588C97.7664 169.187 97.5013 169.746 97.1102 170.214C96.7191 170.681 96.215 171.041 95.6457 171.258C95.0764 171.476 94.4609 171.544 93.8578 171.456C93.2547 171.369 92.6841 171.128 92.2001 170.758C91.4524 170.215 90.9359 169.41 90.7529 168.505C90.57 167.599 90.7338 166.657 91.2121 165.866C92.1461 164.774 93.5141 164.95 93.7341 162.056C93.7901 161.324 95.1101 160.856 95.9221 159.856C99.5601 155.348 101.072 145.388 102.09 146.766C105.222 151.008 104.69 150.61 107.342 152.166C110.784 154.176 109.242 157.488 105.99 158.848C102.006 160.514 109.204 164.448 106.19 167.944C104.888 169.454 102.268 170.636 100.95 169.032C99.8721 167.716 100.21 167.378 98.7721 167.414L98.7661 167.388ZM122.756 203.834C122.906 204.96 124.33 205.144 124.528 203.866C124.708 202.698 124.5 202.112 124.99 201.312C127.5 204.172 128.574 210.766 128.688 211.236C129.054 212.744 130.114 214.312 131.9 220.036C132.261 222.411 132.758 224.763 133.39 227.08C135.79 234.902 135.908 246.602 129.146 244.772C123.612 243.272 119.946 238.152 115.6 233.54C109.624 227.182 90.1861 206.372 90.0981 197.652C90.3726 196.097 91.0366 194.637 92.0281 193.408C95.1051 187.684 97.7782 181.751 100.028 175.654C101.108 173.016 100.61 172.054 101.818 172.068C103.647 172.242 105.471 171.685 106.891 170.519C108.312 169.354 109.214 167.674 109.4 165.846C109.436 163.404 107.388 161.26 107.456 160.866C107.546 160.332 107.94 161.178 110.902 157.578C111.484 156.246 111.636 154.765 111.336 153.342C111.25 152.39 112.97 152.942 114.722 151.43C115.922 150.394 114.866 148.988 114.086 149.306C109.264 151.272 108.04 151.998 102.77 143.582C100.598 140.114 100.542 134.702 106.264 132.452C107.681 131.906 109.244 131.873 110.683 132.36C112.121 132.847 113.343 133.823 114.136 135.118C115.598 136.684 114.67 138.118 116.608 139.35C117.114 139.762 117.71 140.049 118.348 140.185C118.986 140.322 119.648 140.306 120.278 140.137C120.909 139.969 121.49 139.653 121.975 139.216C122.459 138.779 122.833 138.234 123.066 137.624C123.576 136.106 122.748 135.234 123.772 135.234C137.454 135.234 138.512 133.822 145.128 137.034C146.032 137.474 145.564 138.798 147.63 141.278C148.255 142.171 149.08 142.906 150.039 143.425C150.999 143.943 152.066 144.23 153.155 144.262C154.245 144.295 155.327 144.073 156.316 143.614C157.305 143.154 158.173 142.47 158.85 141.616C162.12 137.672 160.726 134.238 161.678 133.856C162.236 133.632 162.57 133.456 162.814 133.896C163.53 135.182 163.71 138.608 168.146 141.442C170.56 142.984 170.608 144.586 169.846 145.944C167.416 150.282 164.09 148.282 162.986 154.462C162.232 158.682 160.186 169.998 158.902 174.278C158.41 176.051 157.378 177.627 155.95 178.788C153.316 180.562 150.75 179.798 144.622 179.388C135.764 178.788 133.622 177.388 129.74 183.834C127.322 187.848 122.122 199.234 122.76 203.862L122.756 203.834ZM207.066 258.336C209.754 258.42 209.666 263.312 206.898 263.198C206.562 263.213 206.226 263.158 205.912 263.037C205.598 262.916 205.313 262.731 205.073 262.494C204.834 262.257 204.647 261.973 204.523 261.66C204.398 261.348 204.34 261.013 204.352 260.676C204.364 260.34 204.445 260.009 204.59 259.706C204.736 259.402 204.942 259.132 205.197 258.912C205.452 258.693 205.75 258.528 206.071 258.429C206.393 258.33 206.732 258.298 207.066 258.336ZM207.848 267.784C207.651 267.763 207.46 267.703 207.286 267.608C207.112 267.513 206.959 267.385 206.835 267.231C206.71 267.077 206.618 266.899 206.562 266.709C206.506 266.519 206.488 266.32 206.509 266.123C206.53 265.926 206.59 265.735 206.685 265.561C206.78 265.387 206.908 265.234 207.062 265.109C207.217 264.985 207.394 264.892 207.584 264.837C207.774 264.781 207.973 264.763 208.17 264.784C210.04 264.766 210.152 267.8 207.848 267.784ZM205.168 255.614C204.968 257.922 202.168 256.842 202.312 255.516C202.349 255.155 202.521 254.82 202.795 254.581C203.069 254.342 203.423 254.216 203.786 254.229C204.149 254.241 204.494 254.391 204.751 254.649C205.007 254.906 205.156 255.251 205.168 255.614ZM202.768 266.896C202.352 266.878 201.96 266.696 201.678 266.39C201.396 266.083 201.248 265.677 201.265 265.261C201.283 264.845 201.465 264.453 201.771 264.171C202.078 263.889 202.484 263.74 202.9 263.758C204.782 263.736 204.828 266.894 202.768 266.896ZM200.034 257.802C201.496 257.814 201.924 258.532 201.92 259.638C201.916 260.744 201.366 261.274 200.174 261.284C199.942 261.299 199.708 261.268 199.488 261.192C199.268 261.116 199.065 260.997 198.892 260.841C198.719 260.685 198.579 260.496 198.48 260.285C198.381 260.074 198.325 259.846 198.316 259.613C198.306 259.38 198.344 259.148 198.426 258.93C198.508 258.712 198.633 258.512 198.793 258.343C198.954 258.174 199.146 258.039 199.36 257.946C199.573 257.853 199.803 257.803 200.036 257.8L200.034 257.802ZM107.47 346.448C104.728 344.299 102.456 341.611 100.794 338.55C100.208 337.234 102.318 334.014 106.276 334.638C106.548 334.708 106.836 334.689 107.096 334.582C107.356 334.475 107.575 334.287 107.719 334.046C107.863 333.804 107.926 333.523 107.897 333.243C107.868 332.963 107.749 332.701 107.558 332.494C105.276 330.246 104.722 326.666 108.486 326.306C109.835 326.159 111.191 326.084 112.548 326.08C113.372 326.08 114.632 324.736 113.416 323.816C111.962 322.716 110.226 318.174 113.576 317.44C115.964 316.918 117.672 317 118.464 316.302C120.276 314.702 117.374 315.524 117.592 309.926C117.622 309.126 119.792 307.506 122.03 308.006C123.38 308.308 124.43 308.442 124.962 307.308C125.546 306.072 123.496 305.066 123.066 303.508C122.09 299.982 125.774 298.278 128.8 299.212C129.334 299.376 129.852 299.574 130.338 299.012C130.584 298.817 130.75 298.54 130.807 298.232C130.864 297.924 130.808 297.606 130.648 297.336C130.22 296.466 129.378 293.858 130.848 293.096C131.833 292.49 132.962 292.159 134.118 292.14C136.518 291.622 136.58 292.648 139.718 295.87C139.998 296.156 140.05 296.368 139.658 296.538C137.867 297.6 136.312 299.017 135.088 300.702C134.806 301 130.308 305.762 130.276 305.802C125.342 313.328 109.424 337.534 107.47 346.448ZM214.728 275.01C166.894 341.736 166.222 353.846 153.076 353.428C141.892 350.87 140.294 349.352 118.26 332.86C117.022 331.932 116.53 332.344 117.46 330.804C132.776 305.574 130.086 309.826 134.94 304.584C137.25 302.088 137.158 301.81 137.54 302.184C152.892 317.82 149.72 314.826 158.234 307.998C163.198 304.018 193.302 270.374 197.42 265.732C198.096 264.97 197.82 265.792 202.062 269.154C203.006 270.064 204.182 270.695 205.462 270.977C206.742 271.259 208.075 271.182 209.314 270.754C210.584 270.1 211.28 270.998 214.072 273.542C215.148 274.526 215.026 274.6 214.728 275.01ZM210.432 262.292C210.436 262.167 210.463 262.045 210.514 261.931C210.565 261.817 210.638 261.715 210.728 261.629C210.819 261.544 210.925 261.477 211.041 261.432C211.158 261.388 211.282 261.367 211.406 261.37C211.531 261.373 211.653 261.401 211.767 261.452C211.881 261.503 211.983 261.576 212.069 261.666C212.154 261.756 212.221 261.863 212.266 261.979C212.31 262.096 212.332 262.22 212.328 262.344C212.332 262.473 212.31 262.602 212.262 262.723C212.215 262.843 212.143 262.953 212.052 263.044C211.96 263.136 211.851 263.208 211.731 263.256C211.611 263.304 211.482 263.327 211.353 263.323C211.223 263.32 211.096 263.29 210.978 263.235C210.861 263.181 210.756 263.103 210.67 263.006C210.584 262.91 210.518 262.797 210.477 262.674C210.436 262.551 210.421 262.421 210.432 262.292ZM244.942 232.47C244.142 234.258 244.142 232.07 240.268 231.84C237.868 231.698 229.832 233.33 231.202 235.008C231.51 235.382 231.676 235.95 232.426 235.704C241.07 232.864 242.272 234.37 243.858 237.076C245.376 239.676 244.428 242.41 242.73 244.896C241.33 246.95 241.386 248.122 240.032 248.534C237.984 249.158 235.032 249.22 235.41 247.212C235.77 245.288 235.642 244.712 236.474 244.612C237.522 244.474 237.702 243.572 238.874 243.38C242.29 242.818 242.586 239.49 239.942 240.684C238.742 241.222 240.022 239.484 238.552 239.372C237.584 239.294 237.72 240.252 236.764 241.64C235.808 243.028 235.74 240.746 234.21 241.11C234.023 241.143 233.851 241.233 233.717 241.367C233.584 241.502 233.495 241.675 233.464 241.862C230.106 253.572 229.226 251.374 227.714 256.294C226.182 261.294 221.61 265.326 220.024 267.094C219.466 267.716 219.748 267.398 216.04 264.424C215.04 263.624 217.004 263.006 214.916 260.006C210.134 253.132 207.686 254.148 208.23 252.324C208.81 250.384 207.196 255.448 212.868 233.62C214.868 225.95 215.686 219.464 219.686 212.16C222.203 207.939 225.468 204.212 229.32 201.16C233.787 198.007 238.409 195.082 243.17 192.394C243.898 191.964 245.256 191.728 245.434 193.638C245.518 194.542 245.146 195.94 242.186 198.16C231.5 206.176 231.586 205.814 229.834 208.16C227.372 211.434 224.034 214.89 223.566 218.96C223.508 219.478 222.744 220.308 222.626 220.522C221.906 221.846 223.026 222.45 224.12 221.892C228.75 220.079 233.61 218.92 238.56 218.446C239.091 218.468 239.611 218.603 240.084 218.844C240.558 219.085 240.974 219.425 241.304 219.841C241.634 220.257 241.87 220.74 241.997 221.255C242.124 221.771 242.138 222.308 242.038 222.83C241.884 223.972 241.93 223.984 240.768 223.79C240.728 223.79 233.596 225.436 231.968 225.502C227.586 225.684 226.812 229.188 228.916 228.89C229.868 228.754 229.88 227.97 232.104 227.934C238.276 227.832 240.39 224.862 243.566 227.934C244.232 228.458 244.721 229.175 244.967 229.986C245.213 230.797 245.204 231.664 244.942 232.47ZM229.142 213.046C234.59 205.88 232.9 207.742 236.792 204.89C240.266 202.634 243.507 200.037 246.468 197.14C247.105 196.358 247.495 195.406 247.59 194.402C247.685 193.398 247.481 192.389 247.002 191.502C246.264 190.254 245.3 189.636 243.184 190.438C236.616 193.516 230.467 197.417 224.884 202.048C224.52 199.064 224.17 178.848 224.17 175.752C224.17 175.022 245.152 174.066 247.57 173.838C252.714 173.354 251.77 171.718 252.14 179.76C251.634 209.32 252.016 209.39 252.412 214.056C252.464 214.676 252.158 214.68 251.412 214.578C250.186 214.4 228.27 214.186 229.136 213.046H229.142ZM237.632 216.81C234.208 216.891 230.81 217.429 227.528 218.41C225.75 218.94 226.548 218.21 226.91 216.996C227.272 215.782 227.358 214.984 228.71 215.396C232.13 216.448 237.08 215.878 237.626 216.81H237.632ZM223.75 140.764C223.75 136.29 222.832 137.936 248.166 133.178C251.382 132.578 250.502 130.444 251.166 147.662C251.602 158.926 251.726 149.262 251.74 170.444C251.74 171.77 254.586 171.47 224.802 173.512C223.748 173.584 223.76 175.772 223.744 140.764H223.75ZM253.502 173.894C253.418 172.74 252.414 173.456 282.914 170.544C283.93 170.446 283.884 169.844 283.978 177.42C283.978 177.464 284.328 216.648 284.324 216.688C275.724 216.628 255.996 215.138 255.104 215.018C254.212 214.898 254.188 214.392 254.162 214.102C253.012 200.246 254.4 186.414 253.496 173.894H253.502ZM283.102 168.636C279.288 168.906 275.838 169.526 272.806 169.866C271.806 169.978 260.406 170.666 257.326 170.982C253.458 171.382 253.466 171.52 253.466 170.734C253.488 136.418 251.402 132.518 252.972 132.334C256.036 131.964 261.874 130.334 282.122 126.534C283.322 126.308 282.922 124.206 283.206 150.886C283.378 168.304 284.36 168.544 283.086 168.636H283.102ZM319.426 220.052C320.141 219.724 320.751 219.205 321.19 218.552C321.629 217.899 321.879 217.138 321.912 216.352C321.624 200.65 321.602 136.234 321.112 121.766C320.986 118.084 319.598 117.39 316.764 117.89C316.08 118.01 225.964 135.162 225.92 135.17C220.972 136.21 221.442 135.756 221.656 157.356C221.956 187.474 223.438 198.49 222.688 203.878C220.819 205.805 219.25 208.002 218.034 210.396C217.988 210.196 216.77 152.45 217.254 136.636C217.364 133.05 218.688 132.188 220.572 131.564C232.282 127.682 274.842 120.014 286.714 117.59C309.914 112.858 319.072 111.008 323.016 110.626C325.642 110.372 325.894 111.602 326.036 114.152C326.082 114.99 326.886 223.114 326.812 224.042C326.686 225.668 326.24 226.716 324.992 226.592C324.948 226.592 306.938 227.768 265.456 222.764C247.926 220.648 244.674 221.854 244.388 220.6C243.918 218.977 242.872 217.582 241.446 216.676C244.3 215.64 303.03 221.024 319.41 220.052H319.426ZM319.226 141.876C319.426 167.232 319.906 165.896 318.926 165.936C312.996 166.174 295.342 168.286 295.198 167.656C284.838 168.602 285.51 168.598 285.472 167.824C285.058 159.458 284.572 127.494 284.576 127.454C284.776 125.388 281.34 126.55 317.646 120.028C320.358 119.538 319.114 129.56 319.2 141.876H319.226ZM319.524 176.24C319.524 176.28 319.71 182.682 319.724 182.722C319.664 183.004 319.418 186.308 319.664 214.74C319.684 217.08 318.632 217.772 317.564 217.956C316.496 218.14 303.464 217.578 297.396 217.356C291.634 217.156 286.838 216.692 285.94 216.676C285.88 214.324 285.612 172.744 285.54 171.388C285.486 170.332 285.444 170.272 286.54 170.216C309.65 169.042 302.52 168.662 318.598 167.758C319.862 167.688 319.462 166.904 319.508 176.24H319.524ZM326.712 238.422C252.47 229.81 248.328 230.022 247.292 228.546C245.892 226.53 245.63 225.746 244.77 225.296C244.268 225.036 244.256 224.714 244.4 224.228C244.544 223.742 244.618 223.406 245.288 223.628C245.332 223.628 311.07 230.114 326.726 229.386C327.144 229.338 327.543 229.184 327.885 228.939C328.227 228.694 328.502 228.366 328.682 227.986C329.254 226.986 329.706 202.892 329.47 192.972C327.854 125.208 329.59 110.186 326.682 108.336C325.966 107.88 325.406 107.674 320.848 108.678C294.49 114.478 230.138 125.708 218.668 130.262C216.024 131.312 215.482 133.508 215.388 136.78C214.824 156.8 216.206 206.95 216.094 213.248C216.094 213.288 212.95 223.528 212.822 223.716C210.982 222.368 212.046 220.6 211.822 204.862C211.718 197.284 210.222 180.56 210.862 134.202C210.934 129.106 211.428 128.22 213.262 127.002C218.662 123.418 319.684 102.47 321.19 102.144C329.876 100.258 333.99 99.19 335.534 104.896C336.758 109.404 335.914 132.062 337.29 172.04C337.362 174.148 337.148 225.996 336.8 229.954C336.2 236.562 333.97 239.266 326.696 238.422H326.712ZM342.5 231.822C342.311 233.479 341.57 235.024 340.396 236.209C339.222 237.394 337.683 238.148 336.028 238.352C339.216 235.886 338.982 230.934 339.06 229.506C339.15 227.886 338.46 120.262 338.06 109.27C338.296 106.498 337.592 103.727 336.06 101.404C335.61 100.786 335.348 100.432 335.746 100.5C342.794 101.7 342.038 107.376 342.164 111.576C342.616 126.762 344.028 210.922 342.484 231.824L342.5 231.822Z" fill="black"/>
<path d="M312.386 185.244C310.034 185.244 312.246 183.844 310.254 179.076C308.454 174.792 304.288 173.836 300.36 175.322C297.694 176.322 295.534 178.148 295.336 183.322C295.268 185.086 295.448 185.82 294.412 186.082C292.212 186.638 292.426 188.618 292.012 194.498C291.934 195.638 291.6 201.742 291.612 203.016C291.648 206.284 293.412 205.536 310.976 205.478C311.418 205.478 311.862 205.326 312.304 205.278C317.904 204.768 316.36 204.138 314.344 186.95C314.331 186.708 314.269 186.472 314.163 186.254C314.057 186.037 313.908 185.843 313.725 185.684C313.543 185.525 313.33 185.404 313.1 185.328C312.87 185.253 312.627 185.224 312.386 185.244ZM297.71 179.812C298.238 178.772 299.045 177.899 300.041 177.292C301.036 176.684 302.182 176.366 303.348 176.372C307.568 176.058 309.348 179.972 309.348 184.202C309.348 184.912 308.924 184.93 308.486 184.968C307.936 185.014 307.796 185.338 307.638 184.768C307.038 182.64 306.9 179.042 304.024 179.01C300.9 178.976 299.982 179.98 299.462 181.282C299.036 182.575 298.794 183.922 298.744 185.282C298.68 185.804 298.052 185.924 297.298 185.704C296.46 185.466 297.098 181.2 297.71 179.812ZM300.942 185.446C299.742 185.504 300.342 182.81 300.826 181.712C301.225 181.106 301.84 180.674 302.546 180.504C303.252 180.335 303.995 180.441 304.626 180.8C305.105 181.295 305.437 181.912 305.586 182.584C306.656 186.154 305.524 185.222 300.942 185.446ZM294.542 203.702C293.124 203.73 293.07 204.572 293.878 190.35C293.936 189.334 294.172 188.04 295.176 187.888C295.89 187.78 308.976 186.81 311.258 187.056C313.018 187.244 312.212 186.5 314.362 200.972C314.868 204.33 310.01 203.4 294.55 203.702H294.542Z" fill="black"/>
<path d="M313.896 139.888C314.296 132.748 307.662 127.202 298.678 131.52C290.516 135.444 292.878 146.108 298.106 148.52C298.648 148.94 299.03 149.534 299.188 150.202C299.264 150.556 296.914 151.866 298.172 154.202C298.328 154.445 298.418 154.725 298.434 155.013C298.45 155.301 298.392 155.589 298.264 155.848C298.118 156.206 298.044 156.589 298.046 156.975C298.049 157.361 298.127 157.743 298.278 158.099C298.428 158.455 298.647 158.778 298.922 159.049C299.198 159.319 299.524 159.533 299.882 159.678C304.882 161.678 303.308 160.678 308.412 159.912C308.842 159.839 309.237 159.631 309.542 159.319C309.846 159.006 310.044 158.606 310.106 158.174C310.74 155.802 309.254 155.872 309.668 154.756C310.9 151.432 307.64 151.272 309.35 148.898C311.268 146.238 314.234 143.138 313.896 139.888ZM304.476 152.638C304.906 152.596 307.95 152.438 308.076 152.92C308.646 154.996 300.276 155.136 299.648 153.14C299.304 152.016 300.17 153.064 304.476 152.638ZM305.736 158.408C300.954 157.948 299.936 158.208 299.854 156.874C299.758 155.18 302.926 157.274 307.454 156.212C307.828 156.124 308.31 156.612 308.406 157.104C308.6 158.096 307.54 158.06 305.736 158.4V158.408ZM307.026 150.076C307.06 151.184 306.472 150.642 302.11 150.952C300.588 151.06 302.11 148.11 298.62 146.45C297.514 145.659 296.617 144.611 296.008 143.395C295.399 142.179 295.095 140.833 295.124 139.474C295.16 138.074 295.572 137.562 297.524 134.58C299.956 132.73 303.008 131.889 306.044 132.23C307.779 132.535 309.339 133.471 310.425 134.858C311.511 136.244 312.047 137.983 311.928 139.74C311.444 145.846 306.92 146.674 307.026 150.076Z" fill="black"/>
<path d="M305.568 194.084C305.852 193.786 306.069 193.431 306.205 193.042C306.341 192.654 306.393 192.241 306.358 191.831C306.322 191.421 306.199 191.023 305.998 190.664C305.797 190.305 305.521 189.992 305.19 189.748C304.497 189.379 303.704 189.239 302.926 189.348C302.335 189.275 301.737 189.389 301.214 189.674C300.692 189.959 300.271 190.399 300.012 190.935C299.752 191.471 299.667 192.074 299.767 192.66C299.868 193.247 300.149 193.787 300.572 194.206C301.52 195.074 301.148 195.526 300.078 199.828C299.42 202.464 302.922 201.118 302.974 201.524C305.436 201.278 306.912 201.48 306.448 199.808C305.11 194.976 304.782 194.92 305.568 194.084Z" fill="black"/>
<path d="M257.26 190.4C257.602 190.672 257.821 191.069 257.871 191.502C257.92 191.936 257.796 192.372 257.524 192.714C254.508 195.822 255.806 194.34 256.524 197.616C256.877 198.68 257.448 199.658 258.202 200.488C258.272 200.602 258.364 200.701 258.473 200.778C258.582 200.856 258.706 200.911 258.836 200.94C258.967 200.969 259.102 200.972 259.233 200.948C259.365 200.924 259.49 200.873 259.602 200.8C261.602 199.872 263.43 199.344 263.422 201.668C263.422 203.512 263.634 204.478 269.566 204.402C273.476 204.35 270.966 201.168 273.272 199.954C274.628 199.24 276.958 201.796 278.022 200.306C284.852 190.74 278.374 194.978 278.422 189.506C278.422 189.134 279.368 188.534 279.592 188.398C281.284 187.372 281.392 187.224 280.488 185.502C279.986 184.143 279.276 182.87 278.384 181.728C276.984 180.3 276.316 181 274.082 181.986C272.376 182.74 272.596 180.91 272.38 178.998C272.238 177.744 271.98 177.5 270.754 177.338C268.801 177.064 266.813 177.192 264.912 177.716C263.55 178.102 263.596 178.86 263.458 180.904C263.218 184.49 259.966 180.104 258.148 182.454C256.95 183.988 256.024 185.717 255.41 187.564C254.882 189.158 256.058 189.61 257.26 190.4ZM259.042 184.136C259.166 183.92 259.37 183.761 259.611 183.696C259.851 183.63 260.108 183.662 260.324 183.786C262.576 184.67 262.574 184.632 264.444 183.2C264.748 182.923 264.987 182.582 265.145 182.202C265.302 181.821 265.373 181.411 265.354 181C265.588 178.63 265.672 179.14 267.564 179.088C270.354 179.012 270.636 179.024 270.648 179.722C270.69 182.122 270.938 182.758 271.736 183.1C272.166 183.583 272.761 183.886 273.405 183.949C274.048 184.012 274.691 183.83 275.206 183.44C276.126 182.74 276.928 182.386 277.442 183.412C279.09 186.698 278.962 186.612 278.51 186.922C277.802 187.396 276.626 187.598 276.648 188.77C276.722 192.452 277.048 192.818 277.724 193.152C279.692 194.118 279.214 194.642 278.832 195.402C275.55 201.942 277.016 195.802 271.908 198.59C270.036 199.61 270.144 199.956 270.29 200.908C270.638 203.172 268.664 202.22 268.64 202.508C266.62 202.308 264.976 202.45 265.21 201.254C265.656 198.968 263.71 199.072 262.624 198.146C262.012 197.622 261.14 197.39 259.906 198.298C258.954 198.998 259.106 197.898 257.782 195.6C256.982 194.2 259.782 195.034 259.624 191.584C259.578 190.536 260.066 189.654 258.824 188.95C257.27 188.06 256.356 188.134 259.042 184.142V184.136Z" fill="black"/>
<path d="M277.162 148.2C276.162 148.296 275.162 148.072 275.162 149.224C275.162 150.376 278.048 149.51 278.08 149.972C279.374 149.71 279.982 149.734 280.24 149.096C280.898 147.498 278.362 148.082 277.162 148.2Z" fill="black"/>
<path d="M280 155.072C278.666 154.262 277.26 153.576 275.8 153.024C274.6 152.924 274.83 154.158 275.574 154.59C276.891 155.432 278.295 156.132 279.76 156.678C280.8 156.102 280.562 155.352 280 155.072Z" fill="black"/>
<path d="M275.692 144.354C275.736 144.354 282.27 139.826 278.928 139.754C275.916 141.582 273.218 144.664 275.692 144.354Z" fill="black"/>
<path d="M274.028 191.4C274.031 190.576 273.896 189.757 273.628 188.978C270.242 182.668 261.838 186.102 262.768 191.758C263.946 198.944 274.118 198.012 274.028 191.4ZM272.33 191C272.742 193.982 268.484 196.952 265.93 194.2C260.332 188.136 271.332 183.78 272.33 191Z" fill="black"/>
<path d="M259.976 147.292C256.432 147.092 255.538 148.208 255.712 151.304C255.942 155.376 260.532 153.82 261.312 154.104C276.956 159.8 274.75 163.432 272.972 140.484C272.634 136.102 262.092 147.418 259.976 147.292ZM259.074 152.434C257.644 152.634 257.294 151.494 257.346 150.286C257.406 148.886 259.876 148.204 259.936 149.458C260.076 152.422 260.612 152.418 259.074 152.434ZM266.974 154.256C262.752 152.614 262.152 153.056 261.658 151.14C261.515 150.797 261.442 150.429 261.443 150.058C261.444 149.686 261.518 149.319 261.663 148.976C261.807 148.634 262.018 148.324 262.283 148.064C262.548 147.804 262.863 147.599 263.208 147.462C265.237 146.147 267.181 144.706 269.028 143.146C273.13 140.056 270.578 140.996 272.562 155.128C272.6 157.132 272.736 156.494 266.974 154.256Z" fill="black"/>
<path d="M233.25 161.922C234.9 161.894 234.004 166.276 239.722 164.946C240.378 164.78 240.972 164.425 241.429 163.926C241.887 163.427 242.188 162.804 242.296 162.136C242.388 159.882 243.696 161.242 246.348 160.468C246.802 160.343 247.189 160.043 247.423 159.634C247.658 159.225 247.721 158.74 247.6 158.284C247.421 157.795 247.12 157.36 246.726 157.02C243.08 152.956 245.848 151.328 243.326 144.62C240.974 138.368 228.554 139.55 230.368 152.536C230.914 156.444 229.628 156.868 228.968 158.912C228.104 161.642 230.338 161.97 233.25 161.922ZM239.684 162.706C236.54 163.792 236.66 163.206 235.978 161.888C237.431 161.421 238.959 161.232 240.482 161.33C240.706 161.978 240 162.6 239.684 162.706ZM232.084 152.462C230.86 144.262 236.3 142.1 239.474 143.354C242.274 144.456 242.492 150.04 242.274 150.072C243.014 155.858 242.5 154.538 245.062 158.494C244.102 158.894 232.262 159.826 231.862 159.81C229.29 159.708 233.088 159.224 232.078 152.462H232.084Z" fill="black"/>
<path d="M245.292 178.88C245.238 177.01 244.492 176.866 243.892 177.346C243.178 177.91 243.944 180.034 243.038 182.804C242.038 185.846 246.47 187.668 244.966 184.592C244.228 183.086 245.388 182.286 245.292 178.88Z" fill="black"/>
<path d="M238.108 183.876C236.618 182.414 238.402 180.514 235.756 179.386C233.442 178.398 233.212 178.434 232.968 178.88C232.52 179.696 233.092 180.206 233.968 180.516C237.02 181.59 234.926 182.756 236.39 184.652C237.342 185.884 237.07 186.314 237.656 187.398C238.242 188.482 239.244 187.872 239.172 186.998C238.892 185.924 238.948 184.7 238.108 183.876Z" fill="black"/>
<path d="M233.282 188.624C231.168 187.69 232.198 186.224 228.9 185.362C228.358 185.22 227.9 185.106 227.7 184.504C227.3 183.304 225.61 184.392 226.572 185.796C227.79 187.572 229.372 186.418 230.606 188.68C231.478 190.28 233.96 191.194 233.956 189.346C233.812 189.186 233.61 188.77 233.282 188.624Z" fill="black"/>
<path d="M161.424 150.164C162.336 149.574 163.356 149.33 163.878 148.43C164.444 147.458 163.478 146.138 160.834 148.176C159.38 149.294 161.22 150.032 161.424 150.164Z" fill="black"/>
<path d="M142.658 160.1C143.244 160.388 143.676 159.87 143.94 159.272C144.378 158.272 144.128 158.582 147.176 162.742C149.396 165.774 153.894 168.042 156.576 164.542C157.767 162.808 158.862 161.011 159.856 159.158C160.021 158.945 160.11 158.683 160.11 158.413C160.11 158.143 160.021 157.881 159.856 157.668C158.304 155.718 155.824 158.286 146.014 156.278C145.294 156.13 145.678 155.878 146.054 155.532C146.728 154.904 146.23 153.544 145.146 153.958C142.386 155.012 140.904 159.244 142.658 160.1ZM149.39 161.68C150.352 161.344 151.375 161.214 152.391 161.298C153.407 161.382 154.394 161.679 155.288 162.168C155.968 162.568 156.126 163.042 155.288 163.814C154.1 164.91 153.194 166.092 149.578 163.272C148.812 162.676 148.912 161.924 149.39 161.68Z" fill="black"/>
<path d="M150.28 133.284C150.057 133.256 149.832 133.307 149.643 133.428C149.454 133.549 149.314 133.733 149.246 133.947C149.178 134.161 149.188 134.392 149.272 134.599C149.357 134.807 149.512 134.979 149.71 135.084C152.632 136.592 153.848 135.124 153.992 136.684C154.156 138.426 156.84 139.214 156.678 135.94C156.608 134.512 158.026 135.54 158.42 133.866C158.7 132.666 157.526 132.76 156.056 133.02C152.084 133.724 154.228 133.96 150.28 133.284Z" fill="black"/>
<path d="M143.478 122.854C143.078 123.534 143.738 124.312 144.602 123.886C145.272 123.556 145.722 122.842 147.304 120.698C150.414 116.484 153.304 118.298 156.208 116.17C157.306 115.37 157.608 113.242 155.136 113.198C149.4 114.174 146.828 117.2 143.478 122.854Z" fill="black"/>
<path d="M113.304 143.868C112.348 143.78 112.088 143.226 112.634 142.438C113.264 141.528 114.312 140.438 113.46 138.748C109.46 130.786 103.348 135.908 103.77 138.326C103.77 140.608 105.254 140.652 105.622 139C105.773 138.429 106.095 137.917 106.545 137.534C106.995 137.151 107.552 136.915 108.14 136.859C108.729 136.802 109.32 136.926 109.835 137.216C110.351 137.505 110.765 137.946 111.022 138.478C112.524 141.318 108.766 140.756 110.522 144.744C111.474 146.904 114.814 146.344 114.536 144.708C114.414 143.952 113.878 143.92 113.304 143.868Z" fill="black"/>
</svg>
