<svg xmlns="http://www.w3.org/2000/svg" viewBox="0 0 50 50" height="250" width="250"><defs></defs><path d="M37.286 29.149c-6.2-6.336-21.094-12.6-29.506-13.578A4.831 4.831 0 0 1 3.669 11.1a4.666 4.666 0 0 1 5.61-4.765C19.326 8.528 33.423 18.657 40.1 26.458a1.508 1.508 0 0 1-.007 1.983l-.591.671a1.509 1.509 0 0 1-2.216.037z" fill="#ff866e"></path><path d="M40.1 26.458c-6.678-7.8-20.775-17.93-30.822-20.121a4.634 4.634 0 0 0-5.247 2.78 4.546 4.546 0 0 1 3.669-.78c10.047 2.191 24.143 12.32 30.822 20.121a1.508 1.508 0 0 1 .354 1.069 1.475 1.475 0 0 0 .631-.415l.591-.671a1.508 1.508 0 0 0 .002-1.983z" fill="#ffa694"></path><path d="M37.286 29.149c-6.2-6.336-21.094-12.6-29.506-13.578A4.831 4.831 0 0 1 3.669 11.1h0a4.666 4.666 0 0 1 5.61-4.765C19.326 8.528 33.423 18.657 40.1 26.458a1.508 1.508 0 0 1-.007 1.983l-.591.671a1.509 1.509 0 0 1-2.216.037z" fill="none" stroke="#45413c" stroke-linecap="round" stroke-linejoin="round" stroke-width="1.25px"></path><path d="M34.713 30.926c-6.329-4.694-20.965-8.15-28.9-7.918a4 4 0 0 1-4.055-3.491 4.025 4.025 0 0 1 4.169-4.543c9.446.394 23.7 7.407 30.853 13.373a1.546 1.546 0 0 1 .159 2.212l-.139.157a1.541 1.541 0 0 1-2.087.21z" fill="#00f5bc"></path><path d="M36.776 28.348c-7.151-5.967-21.407-12.98-30.853-13.374a4.017 4.017 0 0 0-4.183 3.8 4.01 4.01 0 0 1 3.266-1.465c9.446.394 23.7 7.408 30.853 13.374a1.529 1.529 0 0 1 .35.428 1.5 1.5 0 0 0 .587-.393l.139-.157a1.545 1.545 0 0 0-.159-2.213z" fill="#8cffe4"></path><path d="M34.713 30.926c-6.329-4.694-20.965-8.15-28.9-7.918a4 4 0 0 1-4.055-3.491h0a4.025 4.025 0 0 1 4.169-4.543c9.446.394 23.7 7.407 30.853 13.373a1.546 1.546 0 0 1 .159 2.212l-.139.157a1.541 1.541 0 0 1-2.087.21z" fill="none" stroke="#45413c" stroke-linecap="round" stroke-linejoin="round" stroke-width="1.25px"></path><path d="M32.769 33.135c-6.341-3.276-19.78-4.318-26.861-3.029a3.674 3.674 0 0 1-4.216-2.547 3.653 3.653 0 0 1 3.1-4.657c8.493-.966 22.187 3.29 29.458 7.622a1.5 1.5 0 0 1 .485 2.1 1.5 1.5 0 0 1-1.966.511z" fill="#bf8df2"></path><path d="M34.252 30.524c-7.271-4.332-20.965-8.589-29.458-7.624a3.652 3.652 0 0 0-3.1 4.657c0 .013.011.025.015.039A3.635 3.635 0 0 1 4.176 26c8.441-1.347 22.312 2.289 29.771 6.29a1.458 1.458 0 0 1 .574.562 1.467 1.467 0 0 0 .216-.229 1.5 1.5 0 0 0-.485-2.099z" fill="#dabff5"></path><path d="M32.769 33.135c-6.341-3.276-19.78-4.318-26.861-3.029a3.674 3.674 0 0 1-4.216-2.547h0a3.653 3.653 0 0 1 3.1-4.657c8.493-.966 22.187 3.29 29.458 7.622a1.5 1.5 0 0 1 .485 2.1h0a1.5 1.5 0 0 1-1.966.511z" fill="none" stroke="#45413c" stroke-linecap="round" stroke-linejoin="round" stroke-width="1.25px"></path><path d="M47.149 28.126a8.972 8.972 0 0 0-2.319-.992 2.4 2.4 0 0 1-1.713-2.2 17.234 17.234 0 0 0-.624-3.24 2.712 2.712 0 0 0-4.147-1.294 17.133 17.133 0 0 0-2.488 2.4 2.4 2.4 0 0 1-2.112.977c-.958-.087-1.839-.54-2.81-.588a2.714 2.714 0 0 0-2.707 3.632c.447 1.2 1.437 2.14 1.794 3.387a1.963 1.963 0 0 1-.232 1.73c-.816 1.207-1.992 2.69-1.434 4.233.606 1.676 2.171 1.844 3.722 1.548 1.093-.209 2.24-.828 3.377-.589a2.289 2.289 0 0 1 1.338 1.025c.866 1.1 1.924 2.652 3.469 2.718 2.813.122 2.838-2.9 3-4.894a2.281 2.281 0 0 1 1.552-1.915c1.245-.56 2.967-1.232 3.483-2.627a2.782 2.782 0 0 0-.58-2.812 3.422 3.422 0 0 0-.569-.499z" fill="#fff48c"></path><path d="M44.161 28.615a6.084 6.084 0 0 0-1.577-.675 1.633 1.633 0 0 1-1.164-1.5 11.733 11.733 0 0 0-.424-2.2 1.843 1.843 0 0 0-2.82-.88 11.583 11.583 0 0 0-1.692 1.629 1.634 1.634 0 0 1-1.436.664c-.651-.059-1.25-.367-1.91-.4a1.844 1.844 0 0 0-1.84 2.469c.3.818.976 1.456 1.219 2.3a1.336 1.336 0 0 1-.158 1.177c-.554.82-1.354 1.829-.975 2.877.412 1.14 1.476 1.254 2.531 1.053a5.981 5.981 0 0 1 2.3-.4 1.556 1.556 0 0 1 .91.7c.588.749 1.307 1.8 2.358 1.849 1.912.082 1.93-1.973 2.038-3.328a1.552 1.552 0 0 1 1.056-1.3c.846-.381 2.017-.837 2.367-1.786a1.891 1.891 0 0 0-.393-1.912 2.391 2.391 0 0 0-.39-.337z" fill="#ffe500"></path><path d="M47.149 28.126a8.972 8.972 0 0 0-2.319-.992 2.4 2.4 0 0 1-1.713-2.2 17.234 17.234 0 0 0-.624-3.24 2.712 2.712 0 0 0-4.147-1.294 17.133 17.133 0 0 0-2.488 2.4 2.4 2.4 0 0 1-2.112.977c-.958-.087-1.839-.54-2.81-.588a2.714 2.714 0 0 0-2.707 3.632c.447 1.2 1.437 2.14 1.794 3.387a1.963 1.963 0 0 1-.232 1.73c-.816 1.207-1.992 2.69-1.434 4.233.606 1.676 2.171 1.844 3.722 1.548 1.093-.209 2.24-.828 3.377-.589a2.289 2.289 0 0 1 1.338 1.025c.866 1.1 1.924 2.652 3.469 2.718 2.813.122 2.838-2.9 3-4.894a2.281 2.281 0 0 1 1.552-1.915c1.245-.56 2.967-1.232 3.483-2.627a2.782 2.782 0 0 0-.58-2.812 3.422 3.422 0 0 0-.569-.499z" fill="none" stroke="#45413c" stroke-linecap="round" stroke-linejoin="round" stroke-width="1.25px"></path><path d="M23.927 39.519a3 3 0 0 0-.773-.331.8.8 0 0 1-.571-.734 5.782 5.782 0 0 0-.208-1.081.906.906 0 0 0-1.384-.431 5.693 5.693 0 0 0-.829.8.8.8 0 0 1-.7.326c-.32-.029-.614-.181-.937-.2a.9.9 0 0 0-.9 1.211c.149.4.479.713.6 1.129a.655.655 0 0 1-.077.577c-.272.4-.665.9-.479 1.411.2.56.724.615 1.242.517a2.944 2.944 0 0 1 1.126-.2.766.766 0 0 1 .446.342c.289.367.642.884 1.157.907.938.04.946-.968 1-1.632a.762.762 0 0 1 .518-.639c.415-.187.989-.411 1.161-.876a.926.926 0 0 0-.193-.938 1.123 1.123 0 0 0-.199-.158zM39.15 10.041a2.951 2.951 0 0 0-.84-.025.8.8 0 0 1-.8-.475 5.735 5.735 0 0 0-.589-.929.9.9 0 0 0-1.445.1A5.729 5.729 0 0 0 35 9.763a.8.8 0 0 1-.537.56c-.307.09-.636.057-.943.161a.9.9 0 0 0-.4 1.457c.286.318.707.489.97.832a.657.657 0 0 1 .139.566c-.106.474-.29 1.078.071 1.488.392.447.9.308 1.344.027.314-.2.594-.53.976-.595a.763.763 0 0 1 .54.155c.4.236.921.589 1.409.421.887-.305.527-1.246.333-1.884a.761.761 0 0 1 .249-.784c.318-.326.77-.744.76-1.24a.926.926 0 0 0-.522-.8 1.1 1.1 0 0 0-.239-.086z" fill="#fff48c" stroke="#45413c" stroke-linecap="round" stroke-linejoin="round" stroke-width="1.25px"></path></svg>