<svg width="400" height="400" viewBox="0 0 400 400" fill="none" xmlns="http://www.w3.org/2000/svg">
<path d="M376.86 334.26C361.26 352.44 328.3 380.26 283.9 374.74C181.14 361.88 206.38 403.64 105.44 377.48C74.62 369.48 67.16 353.64 52.94 332.92C56 332.92 22.74 304.22 22 280.92C82.34 286.34 338.66 314.4 376.86 334.26Z" fill="#FFF6DD"/>
<path d="M323.62 173.499C324.96 194.299 307.26 315.38 307.22 315.62C306.4 320.24 306.18 326.84 301.5 326.56C300.02 326.56 302.94 330.88 309.68 265.2C310.94 253.02 323.94 174.659 318.24 167.579C316.64 165.579 323.24 167.739 323.62 173.499Z" fill="#D8E9FF"/>
<path d="M298.36 325.86C297.256 326.658 295.978 327.18 294.632 327.386C293.286 327.592 291.91 327.472 290.62 327.04C280.04 324.84 112.619 299.9 112.019 299.84C94.0194 298.42 100.539 295.84 101.159 266.3C101.359 257.16 102.959 240.16 105.899 217.56C112.979 163.139 111.359 156.319 117.139 153.299C121.379 151.079 171.139 154.599 171.319 154.619C172.239 154.719 171.799 154.419 176.159 163.419C171.539 163.599 132.659 160.619 128.999 160.759C122.259 161.019 118.399 158.139 116.739 172.179C116.739 172.379 109.739 223.08 108.579 237.34C103.799 296.56 99.0592 289.18 130.179 294.06C136.179 295 246.98 310.06 253.08 310.56C293.84 314.56 292.92 319.4 296.28 299.04C296.7 296.44 306.5 213.64 309.12 183.039C309.92 173.739 306.24 173.979 297.28 173.179C213.28 165.519 191.459 165.279 191.459 163.999C191.459 163.999 189.319 156.519 189.299 156.479C189.099 155.759 188.959 155.779 200.54 156.679C203.3 156.899 223.26 157.199 227.06 157.919C227.26 157.919 236 158.599 236.2 158.599C315.16 163.959 317.5 162.159 317.64 174.779C317.92 199.679 301.46 323.22 298.36 325.86Z" fill="#D8E9FF"/>
<path d="M307.2 183.859C307.2 185.619 294.62 306.2 292.08 309.86C289.24 314.08 269.92 310.66 264.66 309.86C264.46 309.86 116.08 291.42 109.82 288.22C106.08 286.22 107.16 278.4 107.38 274.06C108.38 256.24 115.38 193.159 118.84 170.579C119.34 167.239 119.64 162.299 124 162.399C143 162.779 172 165.44 175.3 165.48C178.6 165.52 176.6 165.239 181.14 172.699C182.32 174.699 175.66 171.059 173.64 169.799C171.62 168.539 170.22 169.919 170.62 171.339C171.36 173.879 174.62 173.839 161.78 173.339C124.34 171.739 127.4 166.359 124.8 184.679C122.42 201.6 116.96 244.5 115.98 276.98C115.969 277.884 116.257 278.766 116.799 279.49C117.342 280.212 118.109 280.736 118.98 280.98C129.8 283.96 257.56 298.58 257.78 298.6C282.34 301.3 283.78 302.24 285.78 293.78C285.78 293.54 297.6 190.499 297.1 186.939C296.36 181.479 286.04 183.779 207.74 176.279C190.7 174.659 197.02 175.999 192.56 167.259C191.68 165.499 294.24 174.899 297.06 175.099C307.14 175.859 307.14 175.159 307.2 183.859Z" fill="white"/>
<path d="M304.3 328.76C306.08 339.8 262.3 383.18 261.4 384.4C260.646 385.482 259.616 386.344 258.418 386.894C257.218 387.442 255.892 387.658 254.58 387.52C246.88 384.74 147.02 370.4 46.2197 346.34C31.8397 342.9 35.6997 343.84 34.6797 338.62C34.5597 338.26 34.0797 334.62 35.1597 335.3C50.0397 343.9 213.16 372.04 216.78 372.76C253.56 379.98 255.4 381.6 258.66 376.88C258.8 376.68 299.52 330.06 299.72 329.84C300.42 329.1 300.08 329.84 302.14 329.02C303.78 328.36 304.18 328.22 304.3 328.76Z" fill="#D8E9FF"/>
<path d="M297.06 329.56C296.86 329.9 257.96 377.56 253.2 377.7C126.88 353.36 21.9996 337.5 38.3196 329.06C42.7196 326.8 95.2396 298.26 101.16 299.84C119.8 304.82 297.32 329.14 297.06 329.56ZM264.3 349.44C274.3 339.44 279.1 335.02 271.92 333.8C250.98 330.26 229.56 327.46 100.56 307.4C94.2596 308.06 81.4998 315.82 76.7798 319.16C75.6398 319.96 75.4798 321.8 77.9998 322.62C86.7798 325.54 254.98 356.24 257.28 355.58C259.14 355.06 264.5 349.44 264.3 349.44Z" fill="#D8E9FF"/>
<path d="M293.58 185.859C298.92 187.439 292.16 209.86 292.46 216.96C292.46 217.16 284.98 290.72 283.26 295.88C281.26 301.66 273.1 297.34 197.12 288.84C196.92 288.84 153.78 285.46 122.68 279.8C115.38 278.46 115.7 279.5 126.42 187.059C128.24 171.299 126.86 172.379 146.18 174.039C179.02 176.859 169.96 171.159 177.88 184.839C179.02 186.839 176.56 185.359 176.34 187.819C175.88 192.979 175.06 196.199 177.9 196.419C187.9 197.199 183.5 195.559 189.16 202.42C189.813 203.482 190.521 204.51 191.28 205.5C193 207.2 192.12 207 186.1 206.38C185.56 206.38 172.1 205.14 171.94 205.16C168.4 205.36 161.82 203 161.72 206.06C161.58 210.8 160.66 214.06 162.98 214.38C207.98 219.38 198.76 216.38 206.72 224.72C209.5 227.68 213.24 227.02 208.72 220.48C207.18 218.18 210.72 220.32 224.72 220.48C230.72 220.48 234.04 223.44 234.12 217.5C234.12 212.48 235.62 210.78 230.76 210.42C203.38 208.42 217.78 208.88 204.76 208.12C201.34 207.92 201.44 208.12 200.76 207.06C200.08 206 195.36 197.979 196.34 198.059C201.46 198.059 248.88 204.76 249.3 200.92C250.32 191.179 250.08 192.379 244.38 191.719C216.38 188.499 201.06 189.279 200.5 187.119C195.76 176.399 195.84 176.639 197.98 176.959C204.64 178.279 288.92 184.439 293.58 185.859ZM284.88 203.2C285.78 195.979 287.12 194.419 281.36 194.239C253.48 193.399 255.02 190.039 253.82 196.919C252.1 206.76 252.46 201.72 281.98 205.16C282.302 205.228 282.636 205.232 282.96 205.166C283.282 205.102 283.59 204.972 283.862 204.786C284.134 204.598 284.364 204.358 284.538 204.078C284.714 203.798 284.83 203.486 284.88 203.16V203.2ZM282.36 222.62C283.24 212.98 285 214.18 272.36 213.76C237.6 212.6 238.54 207.42 238.02 217.06C237.7 222.8 237.8 222 244.98 222.34C244.98 222.22 279.8 224.96 279.84 224.98C280.48 224.958 281.092 224.7 281.556 224.258C282.02 223.816 282.306 223.218 282.36 222.58V222.62ZM280.36 243C282.52 230.32 280.86 235.48 263.56 233.38C263.36 233.38 183.56 226.2 183.44 226.32C182.957 226.678 182.584 227.162 182.362 227.72C182.139 228.278 182.076 228.888 182.18 229.48C180.18 238.42 183.64 235.7 191.58 237.18C199.52 238.66 275.7 244.96 275.9 244.94C278.18 244.9 279.98 245.2 280.36 242.96V243ZM277.26 264.58C278.14 253.22 281.14 257.26 258.82 254.76C247.14 253.46 241.64 252.76 240.34 253.74C239.04 254.72 239.22 260.94 238.92 261.74C238.44 264.54 243.42 263.38 261.74 265.54C272.92 266.74 277 267.86 277.26 264.54V264.58ZM275.64 283.06C276.5 280.26 277.02 275.62 274.06 275.5C268.4 275.24 197.06 267.66 194.28 267.22C188.28 266.32 187.78 265.22 186.94 269.92C185.58 277.68 187.06 275.92 193.18 277.04C194.66 277.32 269.92 286.26 273.18 286.16C275.46 286.06 275.84 283.02 275.64 283.02V283.06ZM236.26 256.48C235.82 252.48 236.44 252.48 230.66 252.08C230.46 252.08 179.84 246.3 177.96 246.08C159.96 244.26 164.98 244.08 163.44 251.88C162.46 256.86 166.56 253.18 233.82 262.9C236 263.2 235.68 260.88 236.18 256.44L236.26 256.48ZM182.68 273.54C182.68 272.9 183.32 269.02 183.1 269C183.1 265 182.94 265.48 177.68 264.84C175.06 264.52 139.16 260.5 132 260.32C129.34 260.32 129.28 266.32 129.32 267.26C129.58 271.84 131.84 269.26 181.32 275.26C181.73 275.2 182.102 274.982 182.356 274.654C182.609 274.326 182.726 273.912 182.68 273.5V273.54ZM178.68 232.42C178.9 229.18 179.54 225.76 177.42 225.62C132.4 222.38 131.18 218.52 131.58 229.86C131.78 235.14 141.58 230.74 176.52 235.86C178.48 236.3 178.68 232.14 178.68 232.38V232.42ZM171.86 193.539C172.82 184.279 174.94 185.539 154 184.379C138.16 183.459 136.98 182.879 136.34 185.299C133.82 194.879 137.28 193.619 144.14 193.839C145 193.839 169.8 195.719 170.3 195.719C172.28 195.619 171.86 193.239 171.86 193.499V193.539ZM160.72 251.54C160.84 243.24 161.82 244.4 154.04 243.42C153.88 243.42 134.16 242.16 134.18 241.98C132.46 241.98 131.24 241.64 130.62 247C129.98 252.68 131.1 251.38 152.62 253C157.46 253.5 160.48 255.18 160.72 251.56V251.54ZM153.98 213.32C155.02 211.32 154.3 211.9 154.44 211.32C154.98 204.36 155.56 203.82 152.68 203.68C134.18 202.68 134.32 201.08 133.46 206.94C132.36 214.52 133.94 212.54 152.86 213.96C153.087 213.982 153.317 213.936 153.517 213.826C153.717 213.714 153.879 213.544 153.98 213.34V213.32Z" fill="#84D492"/>
<path d="M182.02 41.3192C174.56 37.0392 174.86 35.7594 171.02 43.6194C169.84 45.9994 169.14 47.3394 168.18 47.1394C163.266 46.0514 158.225 45.6476 153.2 45.9394C151.78 46.3394 150.62 36.5794 147.72 34.8394C146.74 34.2394 147 34.8392 135.72 39.2992C132.88 40.4192 135.28 42.7192 138.44 50.5392C139.22 52.5392 137.06 49.9794 128.72 60.1194C128.34 60.5794 128.28 60.4592 125.36 58.8192C117.6 54.4192 118.58 54.0392 114.86 61.3192C111.32 68.2592 110.86 68.4592 114.16 70.2592C126.86 76.9792 120.16 70.6192 121.72 87.4992C121.72 88.1592 121.72 87.9594 115.38 90.1794C109.92 92.1794 109.88 91.6194 113.62 101.179C116.68 109.019 116.68 105.719 125.62 102.859C127.04 102.399 126.62 102.739 128.46 105.099C136.46 115.439 135.08 107.739 131.38 116.859C129.72 120.019 128.18 121.759 131.94 123.539C142.22 128.459 142.94 128.919 144.22 126.239C149.12 115.919 146.48 118.599 153.34 119.279C163.82 120.339 161.22 116.899 162.88 123.599C163.4 125.599 163.96 131.299 166.6 130.039C168.9 128.959 179.4 127.339 179.22 125.199C179.04 123.059 177.64 120.699 176.78 116.039C176.48 114.359 176.46 116.259 182.78 110.979C187.44 107.099 186.18 105.659 188.5 107.139C197.9 113.139 196.16 114.119 203.44 99.9594C204.9 97.1394 193.74 94.3394 194.32 92.4594C194.616 91.7836 194.779 91.0568 194.8 90.3192C196.62 81.1792 194.8 80.0994 196.3 79.6994C206.78 77.0794 207.6 78.1194 206.3 73.6994C202.86 61.4394 203.1 61.8594 197.96 63.6994C190.06 66.4194 192.3 65.9792 190.14 62.9992C183.44 53.7992 182 54.2592 182.64 53.4992C190.4 43.8592 187.22 44.2992 182.02 41.3192ZM284.86 34.8394C284.86 43.5794 281.32 121.939 281.26 122.139C279.68 129.299 284.02 132.479 269.26 131.179C266.26 130.919 266.7 136.219 266.52 141.419C266.52 144.079 265.42 143.719 236.04 142.159C235.66 142.159 185.34 140.379 185.1 140.759C181.94 145.579 190.14 168.119 192.12 173.179C198.98 190.719 198.94 187.539 196.12 187.639C192.62 187.639 190.52 185.639 188.98 186.399C186.14 187.919 205.38 219.54 205.3 219.56C203.3 220.12 169.3 169.559 175.3 173.559C177.783 174.85 180.357 175.96 183 176.879C190.28 179.959 184.32 176.159 170.14 143.699C167.64 137.999 170.58 140.399 124.66 137.699C119.32 137.379 114.66 138.659 114.66 135.039C114.66 131.419 115.36 126.439 113.92 125.219C113 124.439 104.68 124.859 103.48 124.119C98.7 121.199 104.58 26.5794 104.62 26.3794C105.02 24.0394 114.8 24.5794 115.36 24.7194C115.763 24.7698 116.173 24.7284 116.558 24.5984C116.943 24.4684 117.294 24.253 117.584 23.9684C117.875 23.6838 118.097 23.3372 118.235 22.9548C118.373 22.5722 118.422 22.1636 118.38 21.7592C118.2 20.4992 118.62 20.6992 118.82 18.5793C119.34 13.0193 117.9 11.2793 131.94 12.5793C156.4 14.5793 264.6 13.7594 270.78 19.1994C271.32 19.6794 271.34 29.1994 271.46 29.3794C273.78 33.6394 284.8 29.0794 284.86 34.8394ZM274 67.1994C264.36 63.5594 268.94 67.8194 266.64 58.1594C266.18 56.1594 273.66 55.2594 273.14 52.5994C272.208 49.9908 270.858 47.552 269.14 45.3794C267.82 42.8394 265.6 45.8592 262.82 46.5592C262.44 46.6592 262.04 47.0792 261.74 46.9992C260.9 46.7592 260.86 45.4992 257.18 42.9992C254.74 41.2792 254.6 41.4594 254.86 40.8594C256.16 37.6794 257.66 33.6392 252.48 33.2792C247.3 32.9192 245.78 29.7192 244.24 34.5792C242.7 39.4392 244.96 39.3594 239.4 39.3794C234.38 39.3794 233.5 41.0792 232.36 39.5392C227.22 32.5992 229.1 32.9792 220.62 39.5392C219.72 40.2392 220.08 41.3792 220.76 42.2992C225.46 48.5592 224.42 44.2994 219.52 53.1994C218.26 55.5194 211.88 50.0194 211 53.9194C209.42 61.0794 207.34 62.1394 211.54 63.3794C219.16 65.6394 216.78 63.9592 217.54 68.2592C218.54 73.5792 219.12 72.9994 217.92 73.8594C211.74 78.2594 209.92 76.6794 217.14 85.8594C218.94 88.1394 223.94 82.1794 224.74 83.4394C226.08 85.5594 230.46 86.4194 230.2 87.5994C228.2 96.0194 227.4 95.2192 237.88 97.0792C240.36 97.5192 240.6 90.1194 242.24 90.1594C244.604 89.9432 246.954 89.596 249.28 89.1194C251.08 88.7394 252.32 95.9994 254.82 94.6394C256.54 93.6994 264.12 92.0992 262.34 88.7592C259.76 83.9392 259.16 84.1194 259.6 83.6394C267.12 75.8194 263.36 76.6394 267.42 77.6394C272.52 78.7994 272.06 78.9394 273.8 72.1794C273.84 70.0394 275.86 67.8594 274 67.1994Z" fill="white"/>
<path d="M275.6 195.859C286.38 196.539 283.6 194.999 283.22 201.86C283.1 204.62 275.22 201.98 256.9 201.3C255.1 201.3 255.46 199.099 255.76 197.079C256.14 194.619 256.34 194.7 257.06 194.7C257.78 194.7 257.46 194.7 257.48 194.7C263.476 195.587 269.538 195.975 275.6 195.859Z" fill="#C3F6C0"/>
<path d="M270.74 215.72C284.42 215.72 280.74 215.22 280.74 221.34C280.74 222.52 279.48 222.96 278.42 222.9C278.22 222.9 239.86 220.32 239.92 219.34C240.22 213.62 239.92 213.34 241.08 213.48C244.28 213.86 270.54 215.72 270.74 215.72Z" fill="#C3F6C0"/>
<path d="M266.94 235.58C274.66 236.46 279.76 234.78 279.24 237.58C277.74 245.82 283.74 242.48 243.4 240.32C234.5 239.84 191 235.04 190.8 235.04C183.18 235.04 184.199 234.9 183.819 232.18C184.379 228.04 184.199 228.02 184.939 228.06C186.559 228.06 216.06 231.48 223.8 232.06L266.94 235.58Z" fill="#C3F6C0"/>
<path d="M276.04 259.2C276.04 259.2 275.46 263.4 275.46 263.52C275.46 264.48 273.72 264.94 272.82 264.7C271.02 264.24 241.08 261.9 241.2 260.94C241.42 259.44 241.36 257.9 241.7 256.4C241.82 255.9 240.96 255.1 242.64 255.1C272.64 258.76 276.42 256.54 276.04 259.2Z" fill="#C3F6C0"/>
<path d="M265.3 276.72C268.08 277.3 274.8 276.08 274.32 278.86C273.34 284.34 274.6 284.44 268.9 283.68C268.9 283.68 204.9 277.08 194.139 275.32C189.499 274.58 188.379 274.78 188.599 272.98C188.919 270.3 188.399 268.2 189.639 268.28L226.24 272.76C234.06 273.86 263.44 276.5 265.3 276.72Z" fill="#C3F6C0"/>
<path d="M272.62 69.2992C271.5 72.1192 271.94 72.3594 270.9 75.5994C270.68 76.2394 266.66 74.9194 265.7 74.3994C263.5 73.2194 263.82 75.6994 260.94 79.3594C257.2 84.0994 255.74 81.3594 259.5 87.6394C260.78 89.7994 262.46 89.1394 254.8 92.3794C253.62 92.8794 251.6 85.6394 249.34 86.6194C239 89.6394 240.56 86.3194 239.12 91.1794C238.16 94.4194 238.26 95.0594 237.5 94.8794C237.3 94.8794 230.6 93.9192 230.86 92.5792C233.08 81.8392 234.18 88.3194 226.08 81.9194C223.46 79.9194 225.64 80.5792 218.7 84.3392C218.26 84.5792 214.86 79.4594 214.7 78.8594C214.22 77.7994 214.1 78.4994 219.52 74.8594C222.16 73.0794 219.76 72.1592 219.28 65.3392C219.14 63.1792 217.28 63.1194 211.28 61.6194C210.74 61.4794 210.62 61.8592 212.84 54.7792C213.18 53.6792 212.66 53.8192 218.68 55.5192C221.34 56.2592 220.24 53.5192 225.02 48.4992C225.44 47.9842 225.76 47.3936 225.96 46.7592C226.48 45.5192 221.96 41.2392 221.96 40.5792C223.776 39.0562 225.74 37.7164 227.82 36.5792C234.1 46.3192 230.42 41.4394 243.04 40.9794C246.74 40.8594 245.22 33.6394 247.3 34.1594C253.82 35.7594 254.06 35.4392 253.98 36.3392C253.6 39.9592 251.26 41.7394 253.16 42.8994C263.16 49.0794 258.64 51.0394 265.56 47.3794C267.42 46.3794 267.38 46.1992 267.56 46.5792C267.74 46.9592 271.76 52.4192 271.14 52.7792C265.62 55.8992 264.32 56.0194 264.78 57.6394C265.68 60.7394 264.78 66.1192 266.36 66.8392C268.92 68.0792 273.12 68.0192 272.62 69.2992ZM241.54 75.8192C257 75.5992 256.74 54.2992 242.4 53.2592C236.52 52.8192 229.02 58.8994 230.7 66.1194C231.94 71.5394 236.18 75.8594 241.54 75.8594V75.8192Z" fill="#D8E9FF"/>
<path d="M272.18 335.96C274.4 336.76 271.32 338.76 263.16 347.58C262.98 347.78 257.86 353.58 256.74 353.46C248 352.22 84.4194 323.58 78.7394 320.92C76.7394 320 96.9394 308.54 100.999 309.5C100.999 309.5 179.759 322.64 181.779 322.82C198.699 324.42 270.78 335.46 272.18 335.96Z" fill="#D8E9FF"/>
<path d="M251 67.4796C250.582 68.8114 249.878 70.035 248.936 71.0642C247.994 72.0936 246.836 72.903 245.546 73.4354C244.256 73.9678 242.866 74.21 241.472 74.1452C240.078 74.0802 238.714 73.7094 237.48 73.0594C232.92 70.7394 229.82 61.8794 235.28 57.5794C239.28 54.4994 244.58 54.4196 247.06 56.1996C250.76 58.8596 249.9 59.1394 251.06 61.3394C251.584 63.3552 251.564 65.4744 251 67.4796Z" fill="white"/>
<path d="M240.78 193.859C248.78 194.199 248.02 192.899 247.48 199.859C247.32 201.86 194.8 196.079 194.32 195.079C193.442 193.484 192.654 191.842 191.96 190.159C191.28 188.259 197.78 191.739 200.24 191.759C201.2 191.759 201.7 190.419 201.72 190.379C201.74 190.339 235.06 193.519 240.78 193.859Z" fill="#C3F6C0"/>
<path d="M226.96 253.6C235.36 255.16 234.54 252.48 233.94 259.98C233.82 261.44 165.34 253.28 165.44 252.24C165.8 248.24 165.12 246.44 166.98 246.76C171.96 247.58 226.76 253.56 226.96 253.6Z" fill="#C3F6C0"/>
<path d="M231.4 212.64C232.18 212.64 232.44 214.22 232.34 214.98C231.86 218.98 232.58 218.98 231.36 218.98C231.16 218.98 220.76 218.42 209.88 217.34C205.88 216.94 207.48 218.2 202.92 210.62C201.98 209.12 215.78 211.66 231.4 212.64Z" fill="#C3F6C0"/>
<path d="M184.719 45.0192C185.979 45.6192 185.639 45.9992 182.719 50.2792C178.319 56.5592 180.499 51.2992 189.939 66.0392C191.559 68.5392 192.739 66.9794 200.74 64.6594C201.78 64.3594 201.3 63.7994 204.74 75.0994C205.02 75.6594 204.06 76.0392 203.48 76.2392C187.039 79.5992 196.699 77.4192 192.199 92.2392C190.939 96.2392 203 97.3992 201.26 100.239C195.119 110.099 197.379 110.679 193.259 108.239C185.259 103.499 187.659 103.219 184.039 106.959C181.71 109.587 178.951 111.798 175.879 113.499C172.119 114.939 178.879 124.899 176.799 125.259C176.199 125.259 168.019 127.679 166.559 128.099C163.999 128.799 164.999 117.099 161.379 117.239C160.039 117.271 158.703 117.391 157.379 117.599C156.639 117.719 149.639 116.559 148.119 116.639C144.639 116.799 143.399 126.799 141.559 125.939C130.739 120.899 130.879 121.579 132.019 119.519C137.099 110.319 137.399 111.279 135.199 109.299C125.639 100.659 129.739 99.1392 124.379 101.299C115.719 104.739 117.619 106.259 113.479 95.2992C112.839 93.5792 112.899 93.2994 113.479 92.9194C114.599 92.2594 122.479 89.9192 122.879 89.5592C124.179 88.4192 123.839 87.8592 123.639 85.5592C122.559 72.4592 129.359 74.5394 114.439 68.1994C113.599 67.8394 113.339 68.1994 118.699 58.1994C119.299 57.0594 119.059 56.9194 127.359 61.8994C130.019 63.4994 131.239 57.8994 138.739 53.3794C141.999 51.3794 140.059 50.0994 136.479 41.7194C135.959 40.5394 136.119 41.1194 146.379 36.8994C149.219 35.7394 149.459 46.8994 152.379 47.9394C157.743 47.5934 163.129 48.004 168.379 49.1594C169.179 49.3594 170.379 48.8392 170.639 48.0792C171.838 45.4838 173.173 42.9536 174.639 40.4992C175.559 38.6992 180.579 42.4792 184.719 45.0192ZM163.719 67.5994C146.279 59.8994 131.899 85.0194 148.659 96.7194C167.119 109.599 187.419 78.0594 163.719 67.5994Z" fill="#D8E9FF"/>
<path d="M194.76 209.86C197.24 213.86 200.98 217.34 198.199 216.24C196.359 215.48 173.459 213.72 164.199 212.5C163.539 212.5 163.659 212.32 163.439 211.3C163.699 206.28 163.439 206.24 164.079 206.3C193.659 209.04 193.86 208.42 194.76 209.86Z" fill="#C3F6C0"/>
<path d="M178.02 266.6C179.88 266.78 181.34 266.7 181.22 268.14C180.66 274.5 181.519 273.36 175.679 272.6C130.559 266.7 130.299 270.86 131.159 263.68C131.579 260.14 131.28 262 178.02 266.6Z" fill="#C3F6C0"/>
<path d="M169.74 226.78C177.44 227.52 176.92 226.62 176.92 229.28C176.64 233.74 176.92 233.88 175.76 233.78C175.02 233.78 165.08 232.8 163.76 232.62C132.92 228.62 132.98 234.4 133.76 225.36C133.8 223.3 133.74 223.36 169.74 226.78Z" fill="#C3F6C0"/>
<path d="M171.119 88.8794C168.959 94.8794 159.459 99.9994 151.419 95.8794C139.419 89.6994 141.119 71.6594 153.979 69.2194C166.339 66.8394 175.759 75.8594 171.119 88.8794Z" fill="white"/>
<path d="M170.34 188.139C170.34 188.579 170.34 188.959 170.34 188.959C169.58 196.539 171.94 192.959 156.5 192.759C152.66 192.759 138.5 191.739 138.26 191.699C136.76 191.499 137.4 187.059 137.7 186.079C138.38 183.859 152.12 186.319 153.7 186.079C155.072 185.868 156.468 185.868 157.84 186.079C170.18 187.159 170.18 186.939 170.34 188.139Z" fill="#C3F6C0"/>
<path d="M158.84 251.3C158.84 253.16 155.64 251.04 149.8 251.3C148.38 251.3 140.34 250.38 137.42 250.2C130.96 249.76 132.68 250.2 132.4 246.2C132.66 243.48 131.8 242.88 143.08 244.44C160.82 246.9 158.94 242.88 158.84 251.3Z" fill="#C3F6C0"/>
<path d="M152.34 205.44C153.46 205.44 153.14 205.44 152.72 211.72C152.72 212.14 152.42 212.04 151.2 212.04C136.26 210.68 134.62 211.9 135.02 208.98C136.02 201.56 134.18 205.02 152.34 205.44Z" fill="#C3F6C0"/>
<path d="M183.56 194.779C182.476 192.338 181.034 190.073 179.28 188.059C178.02 187.599 178.12 189.419 177.98 190.839C177.58 195.199 177.08 194.459 182.72 194.839C182.72 195.099 183.36 194.839 183.56 194.779Z" fill="#C3F6C0"/>
<path d="M348.86 324.76C348.72 325.46 348.02 325.98 346.7 325.52C344.7 324.84 309.12 317.36 308.7 319.72C308.492 321.932 307.81 324.074 306.7 326C304.94 328.66 310.52 332.36 297.78 346.3C241.92 407.32 289.9 392.16 148.499 370.42C148.299 370.42 115.219 364.66 47.6992 348.66C31.6992 344.88 32.5592 345.42 32.6392 338.08C32.6392 329.36 31.2392 330.9 40.4792 325.54C63.8592 311.96 98.3594 298.12 98.0394 296.94C97.0194 293.36 98.0392 289.62 97.0592 289.56C91.6792 289.24 69.8992 286.58 68.1192 286.5C66.7192 286.5 66.1192 284.02 69.3992 284.28C83.3992 285.42 92.4792 287.28 96.4192 287.34C98.0392 287.34 97.5992 288.96 99.0592 265.76C100.799 237.96 109.579 168.959 112.179 157.099C112.773 155.038 114.014 153.222 115.719 151.919C121.459 147.919 160.619 152.739 167.979 152.299C170.259 152.159 172.279 153.919 169.979 149.719C169.859 149.519 167.619 144.639 166.839 142.299C166.679 141.379 138.079 140.879 132.239 140.479C113.579 139.139 112.099 143.519 112.239 127.879C112.239 125.659 103.259 128.699 100.239 124.939C99.3568 122.889 98.9336 120.671 98.9992 118.439C98.9992 118.099 101.499 30.7392 101.519 30.2392C101.679 26.5592 102.379 23.5594 104.679 22.6994C107.01 22.2824 109.371 22.055 111.739 22.0192C114.179 22.0192 115.739 22.6394 115.999 21.1594C115.999 20.9194 115.499 17.7992 116.179 17.4992C116.019 16.4592 116.619 15.4992 116.619 14.5192C116.619 10.7592 121.239 9.39915 124.959 10.2392C133.419 12.2392 269.7 10.2392 272.64 17.0392C273.742 20.2498 274.124 23.664 273.76 27.0392C272.58 30.0992 278.7 28.0992 284.22 29.8392C289.74 31.5792 286.64 40.8394 286.5 45.3994C283.94 128.799 284.66 134.379 277.66 133.879C275.46 134.046 273.248 133.993 271.06 133.719C267.8 132.699 270.5 140.099 268.14 143.719C267.494 144.702 266.554 145.455 265.454 145.868C264.354 146.282 263.152 146.335 262.02 146.019C260.48 145.459 187.619 142.919 187.419 142.999C186.039 143.579 188.179 151.559 188.419 152.999C188.779 155.199 303.24 157.319 316.88 163.819C329.04 169.599 327 169.579 321.14 225.82C321.14 226.02 309.42 314.56 309.38 314.76C308.86 317.42 308.98 316.08 323.84 319.06C323.98 319.08 349.34 322.02 348.86 324.76ZM322.2 199.359C323.472 190.802 323.948 182.145 323.62 173.499C323.24 167.739 316.66 165.499 318.24 167.499C324.24 174.879 310.24 258.54 309.66 265.12C302.78 332.58 299.66 326.36 301.48 326.48C308.18 326.92 306.72 320.66 322.18 199.359H322.2ZM315.8 206.14C320.36 164.859 319.02 164.499 299.94 162.999C299.74 162.999 188.839 154.619 189.339 156.379C189.339 156.379 191.479 163.799 191.479 163.879C191.479 165.319 278.3 170.439 286.48 172.219C299.96 175.139 310.32 169.399 309.16 182.919C306.54 213.58 296.72 296.42 296.3 298.92C293 319.3 293.88 314.52 253.12 310.46C247.12 309.84 136.259 294.88 130.219 293.94C110.719 290.9 104.839 292.2 105.299 280.32C106.779 243.28 111.559 213.68 116.759 172.079C118.499 158.079 122.279 160.919 129.019 160.659C132.659 160.539 171.579 163.499 176.179 163.319C171.819 154.319 172.179 154.619 171.339 154.519C123.039 154.519 115.779 145.219 112.939 161.739C109.539 181.379 98.3192 277.06 99.5992 295.22C100.059 301.92 248.5 318.12 290.64 326.94C291.934 327.37 293.312 327.488 294.662 327.284C296.01 327.078 297.292 326.556 298.4 325.76C301.84 322.9 315.78 206.34 315.8 206.14ZM307.2 183.859C307.06 175.159 307.2 175.859 297.2 175.139C277.62 173.699 191.799 165.519 192.699 167.299C194.059 169.919 195.039 174.619 196.099 174.899C202.1 176.539 283.56 181.819 293.92 183.939C297.92 184.759 297.92 189.639 297.3 193.659C295.3 207.14 286.68 290.72 285.92 293.8C283.92 302.28 282.48 301.32 257.92 298.62C257.7 298.62 129.919 284 119.119 281.02C115.879 280.12 115.739 276.84 115.959 271.42C116.399 260.64 121.099 211.8 124.939 184.619C127.519 166.419 123.979 171.679 161.899 173.299C174.699 173.839 171.519 174.019 170.759 171.299C170.359 169.879 171.959 168.599 173.779 169.739C175.599 170.879 182.459 174.579 181.279 172.639C176.739 165.199 178.699 165.479 175.439 165.439C172.179 165.399 143.119 162.699 124.139 162.339C119.799 162.339 119.479 167.199 118.979 170.519C113.199 208.28 106.419 280 107.239 283.26C107.919 286.02 108.679 288.42 112.219 289.26C125.719 292.58 283.64 311.86 283.84 311.88C286.48 312.36 290.62 312.18 292.18 309.88C294.78 305.96 307.22 184.079 307.2 183.859ZM303.66 334.28C304.15 332.482 304.366 330.62 304.3 328.76C304.3 328.22 303.78 328.36 302.16 329C300.16 329.8 300.4 329 299.72 329.82C299.04 330.64 279.5 353.82 271.6 362.44C271.42 362.64 259.44 375.76 258.68 376.86C256.08 380.6 250 380.12 248.68 379.04C246.68 377.38 51.6392 344.8 35.1592 335.28C34.1392 334.7 34.4792 338.04 34.6792 338.6C35.6992 343.8 31.8192 342.88 46.2192 346.3C144.779 369.76 168.399 370.3 245 385.92C251.18 387.18 258.06 389.32 261.4 384.38C261.56 384.18 307.82 334.28 303.66 334.28ZM297.06 329.56C297.18 329.36 132.739 305.96 121.739 303.66C94.1392 297.88 104.099 295.08 38.3192 329.06C22.0192 337.5 136.319 355.18 253.2 377.7C257.68 377.48 297.14 329.86 297.06 329.56ZM277.26 184.099C277.06 184.099 200.74 177.539 198.039 176.999C195.739 176.659 196.039 176.999 200.56 187.159C201.12 189.279 217.48 188.659 244.44 191.759C250.16 192.419 250.44 191.219 249.36 200.96C249.06 203.7 249.22 202.96 196.399 198.099C195.419 198.099 200.12 206.1 200.82 207.1C201.52 208.1 201.4 207.98 204.82 208.18C217.82 208.96 203.42 208.38 230.82 210.46C235.68 210.84 234.26 212.46 234.18 217.56C234.18 223.56 230.76 220.64 224.8 220.52C210.8 220.26 207.26 218.12 208.8 220.52C213.2 227.04 209.48 227.7 206.8 224.78C198.919 216.46 208 219.42 163.079 214.42C160.759 214.18 161.659 210.82 161.799 206.1C161.799 203.1 168.479 205.4 172.019 205.2C172.239 205.2 185.739 206.38 186.199 206.42C192.199 207.04 193.079 207.24 191.359 205.56C190.459 204.66 190.059 203.44 189.239 202.46C183.539 195.719 187.939 197.339 177.999 196.459C175.139 196.219 175.999 193.099 176.419 187.839C176.659 185.259 179.179 186.939 177.959 184.879C169.959 171.239 179.099 176.879 146.259 174.079C123.759 172.079 129.119 170.299 124.919 200.18C120.919 228.6 119.539 251.54 119.519 251.74C116.999 277.56 116.439 278.68 122.779 279.74C137.859 282.5 273.3 298.2 273.6 298.24C289.32 299.98 281.82 299.96 294.74 200.24C297 182.339 296.84 185.979 277.26 184.099ZM284.46 40.2992C285.08 32.6792 285.8 32.2992 279.22 31.5392C272.64 30.7792 272.92 32.0994 271.22 29.2194C271.08 28.9794 271.1 19.5192 270.54 19.0392C264.96 14.0992 128.539 12.3993 127.439 12.3793C119.439 12.3793 119.239 11.1192 118.579 18.5192C118.379 20.6392 117.959 20.5194 118.139 21.6994C118.181 22.1038 118.132 22.5122 117.994 22.8946C117.856 23.2772 117.634 23.6238 117.344 23.9084C117.053 24.193 116.703 24.4082 116.317 24.5382C115.932 24.6682 115.523 24.7098 115.119 24.6594C114.699 24.5594 104.799 23.8592 104.379 26.3192C104.379 26.5192 98.6192 121.239 103.239 124.059C104.439 124.799 112.759 124.379 113.679 125.159C115.099 126.359 114.239 131.359 114.419 134.979C114.599 138.599 119.139 137.299 124.419 137.639C170.299 140.499 167.079 137.199 169.899 143.639C183.439 174.659 187.119 176.059 185.619 177.519C185.019 178.119 175.619 173.859 175.059 173.519C169.259 169.699 203.06 220.18 205.06 219.52C205.96 219.28 185.379 188.159 188.739 186.359C190.299 185.519 192.379 187.699 195.879 187.599C198.719 187.499 198.719 190.639 191.879 173.139C189.879 167.819 181.879 145.539 184.859 140.719C185.179 140.219 256.86 142.939 257.62 143.099C260.48 143.599 266.18 144.279 266.28 141.379C266.42 136.699 265.96 130.879 269.02 131.139C283.8 132.439 279.42 129.139 281.02 122.099C282.18 118.219 284.44 40.4992 284.46 40.2992ZM247.72 196.159C247.72 193.639 248.58 194.159 240.78 193.759C236.28 193.559 201.88 190.079 201.76 190.299C201.64 190.519 201.22 191.679 200.28 191.679C197.819 191.679 191.299 188.159 191.999 190.079C192.69 191.764 193.477 193.406 194.359 194.999C194.959 196.299 236.6 199.879 237.76 199.959C249.18 200.66 247.34 201.86 247.72 196.159ZM232.34 214.98C232.44 214.22 232.18 212.7 231.4 212.64C216.08 211.68 201.96 209.06 202.92 210.64C207.46 218.24 205.94 216.96 209.86 217.36C220.94 218.46 231.14 218.98 231.34 219C232.58 219.04 231.86 219.08 232.34 214.98ZM198.199 216.22C200.96 217.32 197.239 213.76 194.759 209.84C193.859 208.42 193.659 209.04 164.059 206.28C163.439 206.28 163.679 206.28 163.399 211.26C163.619 212.28 163.499 212.38 164.159 212.48C173.479 213.7 196.359 215.48 198.179 216.22H198.199ZM183.559 194.779C182.476 192.338 181.033 190.073 179.279 188.059C178.019 187.599 178.119 189.419 177.979 190.839C177.579 195.199 177.079 194.459 182.719 194.839C182.719 195.099 182.679 195.059 183.559 194.779Z" fill="black"/>
<path d="M285.638 197.859C285.518 207.86 285.298 205.34 257.638 203.42C253.198 203.1 252.558 203.66 253.758 196.879C254.958 190.099 253.438 193.419 281.298 194.199C285.638 194.319 285.658 194.979 285.638 197.859ZM283.218 201.86C283.598 194.599 286.578 196.479 273.778 195.859C255.638 195.079 256.398 192.899 255.778 196.959C255.478 198.779 255.098 201.12 256.898 201.2C275.358 202.04 283.078 204.68 283.218 201.86Z" fill="black"/>
<path d="M272.4 213.72C285 214.14 283.2 212.94 282.4 222.58C282.346 223.208 282.064 223.796 281.606 224.23C281.15 224.664 280.55 224.918 279.92 224.94C279.92 224.94 245.06 222.18 245.06 222.3C237.88 221.96 237.78 222.74 238.1 217.02C238.46 210.42 238.1 211.02 243.14 211.58C243.3 211.6 271.84 213.7 272.4 213.72ZM280.72 221.34C280.72 215.22 284.42 215.74 270.72 215.72L241.04 213.48C239.86 213.48 240.18 213.62 239.88 219.34C239.88 220.32 260.34 221.54 253.88 221C263.08 221 280.7 224.4 280.72 221.34Z" fill="black"/>
<path d="M263.578 233.34C280.858 235.34 282.558 230.28 280.378 242.96C279.998 245.2 278.138 244.96 275.918 244.96C275.718 244.96 199.919 238.78 191.619 237.2C183.619 235.7 180.219 238.4 182.239 229.5C182.126 228.908 182.184 228.296 182.407 227.736C182.631 227.176 183.009 226.69 183.499 226.34C183.699 226.16 263.378 233.32 263.578 233.34ZM279.24 237.6C279.76 234.78 274.658 236.46 266.938 235.6L184.939 228.08C184.179 228.08 184.379 228.08 183.799 232.2C184.179 234.86 183.059 235.02 190.779 235.04C193.479 235.04 191.979 235.48 199.059 236.06C284.178 242.88 279.24 246.52 279.24 237.6Z" fill="black"/>
<path d="M278.18 259.12C276.8 269.6 279.44 267.12 249.04 264.2C238.88 263.2 240.04 263.9 239.04 261.9C238.94 261.7 239.3 254.46 240.42 253.68C241.94 252.62 258.42 254.64 258.88 254.72C278.18 256.88 277.32 254.5 278.18 259.12ZM276.18 259.12C276.56 256.46 272.84 258.66 242.78 255.12C241.2 255.12 242.16 255 241.34 260.96C241.2 261.96 270.9 264.16 272.96 264.72C273.86 264.98 275.64 264.5 275.6 263.54C275.46 263.34 276.04 259.32 276.04 259.2L276.18 259.12Z" fill="black"/>
<path d="M273.098 286.12C269.918 286.12 194.659 277.28 193.099 277C186.579 275.76 186.539 276.4 186.499 274.84C186.459 273.28 186.499 268.28 187.919 266.84C188.339 266.36 263.598 275.02 273.918 275.56C278.178 275.66 276.018 286.04 273.098 286.12ZM274.318 278.86C274.798 276.08 268.078 277.3 265.298 276.72C237.798 273.98 189.719 268.28 189.639 268.28C188.399 268.28 188.919 270.28 188.599 272.98C188.379 274.78 189.499 274.58 194.139 275.32C204.918 277.08 268.858 283.68 268.898 283.68C274.578 284.58 273.338 284.34 274.318 278.86Z" fill="black"/>
<path d="M274 67.1994C275.26 67.6794 274.86 67.9594 273.84 71.9394C272.1 78.6994 272.54 78.5394 267.46 77.3794C263.46 76.4394 267.1 75.5394 259.66 83.3794C259.22 83.8594 259.8 83.6792 262.4 88.4992C264.18 91.8392 256.6 93.4394 254.86 94.3794C253.92 94.8994 253.34 94.3794 252.86 93.4794C247.98 85.5794 251.94 90.1594 242.38 89.8994C240.72 89.8994 240.38 97.2594 238 96.8194C227.88 95.0194 228.26 96.1194 230.32 87.3394C230.6 86.1594 226.2 85.3394 224.88 83.1994C224 81.8394 219.12 87.9394 217.28 85.6194C209.96 76.3794 212 77.9594 218.04 73.6194C219.26 72.7594 218.68 73.3392 217.66 68.0192C216.84 63.7192 219.24 65.3994 211.66 63.1394C210.14 62.6994 210.38 62.9394 209.66 62.3594C208.26 61.0594 210.72 55.2594 211.08 53.6794C211.96 49.6794 218.32 55.2994 219.58 52.9794C224.48 44.0194 225.58 48.3594 220.82 42.0794C220.14 41.1594 219.78 40.0794 220.68 39.3194C229.16 32.7794 227.28 32.3994 232.42 39.3194C233.56 40.8594 234.42 39.1794 239.46 39.1594C245.08 39.1594 242.74 39.1594 244.3 34.3594C245.86 29.5594 247.24 32.6792 252.54 33.0592C253.262 33.1264 253.954 33.389 254.54 33.8194C256.18 35.0194 257.14 34.8194 254.84 40.6394C254.6 41.2394 254.72 41.0592 257.16 42.7792C260.84 45.3792 260.88 46.6592 261.72 46.7792C262.02 46.7792 262.42 46.4394 262.8 46.3394C265.6 45.6794 267.8 42.6194 269.12 45.1594C270.838 47.332 272.188 49.7708 273.12 52.3794C273.38 53.6594 272.36 54.0994 270.46 55.1594C265.02 58.1794 266.76 55.4594 267.5 64.5794C267.58 65.5194 270.62 65.8594 274 67.1994ZM272.6 69.3194C273.14 67.9994 269.58 68.2792 266.44 66.7992C264.9 66.0792 265.76 60.6794 264.86 57.5794C264.758 57.2052 264.798 56.807 264.972 56.4604C265.144 56.1138 265.44 55.843 265.8 55.6994C266.26 55.4794 271.8 52.8792 271.34 52.2792C267.2 45.4392 268 46.0394 265.58 47.3394C258.68 50.9994 263.26 49.0394 253.18 42.8594C251.3 41.6994 253.62 39.9192 254 36.2792C254 35.3992 253.84 35.7394 247.32 34.0994C245.32 33.5794 246.76 40.8194 243.06 40.9394C233.76 41.2594 233.06 43.7992 231.62 41.7992C226.78 35.4992 228.74 35.4994 225.26 38.1594C221.78 40.8194 221.98 40.5994 221.98 40.6394C221.98 41.2994 226.44 45.5794 225.98 46.8194C225.32 48.8194 222.08 51.7392 220.4 55.2392C219.52 57.0792 213.52 52.7394 212.88 54.8194C210.66 61.9194 210.76 61.5394 211.3 61.6794C217.3 63.1594 219.06 63.2594 219.3 65.3794C219.8 72.2194 222.18 73.1394 219.54 74.9194C214.12 78.5594 214.24 77.8594 214.72 78.9194C215 79.5194 218.4 84.6194 218.72 84.3994C225.6 80.5994 223.52 79.9194 226.1 81.9794C234.1 88.4194 233.08 81.9794 230.9 92.6394C230.6 94.0194 237.22 94.8594 237.52 94.9394C238.3 95.0994 238.18 94.4992 239.14 91.2392C240.58 86.3792 239 89.6994 249.36 86.6794C251.64 85.6794 253.62 92.9194 254.82 92.4194C262.48 89.1994 260.82 89.8394 259.52 87.6794C255.98 81.6794 256.68 84.7794 260.98 79.3394C266.3 72.6394 261.5 73.6394 269.46 75.5794C272.18 76.2594 270.28 75.1594 272.6 69.3194Z" fill="black"/>
<path d="M271.92 333.86C279.1 335.08 274.18 339.58 264.3 349.5C258.84 354.96 258.94 355.16 257.28 355.64C254.94 356.32 86.7593 325.64 77.9993 322.68C75.4793 321.86 75.6393 320.02 76.7793 319.22C81.4993 315.88 94.2591 308.12 100.559 307.46C229.56 327.48 250.98 330.26 271.92 333.86ZM263.1 347.64C271.3 338.82 274.34 336.86 272.12 336.02C269.36 334.98 108.679 312.02 100.999 309.56C96.9993 308.6 76.7393 320.04 78.7393 320.98C84.2393 323.58 247.28 352.34 256.74 353.52C257.76 353.68 262.92 347.86 263.1 347.58V347.64Z" fill="black"/>
<path d="M241.54 75.8594C238.64 76.1194 232.478 73.8594 230.698 66.1394C229.058 58.9594 236.518 52.7992 242.418 53.2792C245.38 53.4418 248.158 54.7624 250.156 56.9554C252.152 59.1486 253.206 62.0388 253.09 65.0024C252.976 67.966 251.7 70.7652 249.538 72.7964C247.376 74.8274 244.504 75.9276 241.54 75.8594ZM251.018 61.3994C247.858 55.3994 246.418 55.6792 242.138 55.0592C239.618 55.0728 237.184 55.988 235.278 57.6394C232.838 59.6394 231.058 65.4594 233.278 68.4594C238.118 74.6994 242.658 74.9792 246.578 72.9992C248.494 71.8148 249.966 70.0338 250.768 67.9304C251.57 65.8268 251.658 63.5178 251.018 61.3594V61.3994Z" fill="black"/>
<path d="M230.658 252.04C236.418 252.44 235.818 252.44 236.258 256.44C235.678 260.88 236.018 263.22 233.838 262.9C166.799 253.4 162.479 256.9 163.459 251.9C165.019 244.04 159.899 244.28 177.979 246.08L230.658 252.04ZM226.958 253.6C226.758 253.6 172.339 247.6 166.959 246.76C165.139 246.44 165.799 248.08 165.419 252.24C165.419 253.16 233.758 261.72 233.918 259.98C234.598 252.5 235.178 255.12 226.958 253.6Z" fill="black"/>
<path d="M206.28 73.6194C207.54 78.1194 206.72 77.0594 196.279 79.6194C194.699 80.0194 196.599 81.0994 194.779 90.2394C194.752 90.9762 194.589 91.7016 194.299 92.3794C193.739 94.2194 204.88 97.0594 203.42 99.8794C196.099 114.019 197.879 113.119 188.479 107.059C186.159 105.559 187.419 107.06 182.759 110.9C176.379 116.18 176.399 114.26 176.759 115.96C178.759 126.7 181.859 125.36 175.199 127.44C167.199 129.88 168.059 129.26 166.579 129.96C165.479 130.48 164.099 129.12 163.859 127.96C161.099 115.52 163.999 120.179 153.319 119.119C146.459 118.439 149.099 115.739 144.199 126.079C143.499 127.539 142.419 128.24 140.979 127.48C131.499 122.5 126.479 123.979 132.119 115.259C132.999 114.159 133.379 112.8 134.119 111.66C134.699 110.86 133.059 110.96 128.359 104.94C126.519 102.56 126.939 102.24 125.519 102.7C116.579 105.6 116.659 108.699 113.519 101.019C109.779 91.4594 109.819 91.9594 115.279 90.0194C121.579 87.7794 121.699 88.0194 121.619 87.3194C120.979 80.1794 122.699 74.7794 121.619 74.0994C111.279 67.1594 109.619 71.6596 114.139 62.4596C114.139 62.2596 116.919 55.9996 117.999 55.6996C120.739 54.9196 127.699 61.0196 128.559 59.9396C136.779 49.7196 139.059 52.2794 138.279 50.3794C135.119 42.5394 132.739 40.2394 135.559 39.1194C150.859 33.1194 147.179 31.4194 152.319 45.1194C152.439 45.4394 152.699 45.8794 153.059 45.7794C154.159 45.4594 154.559 46.0794 155.979 45.7794C161.639 44.8594 168.299 47.6594 169.019 46.5194C174.839 37.2994 171.779 35.4596 180.099 40.1596C186.259 43.6396 188.799 43.8796 186.379 47.4396C180.379 56.1796 181.279 50.5594 189.979 62.6194C192.139 65.6594 189.979 66.0194 197.799 63.3394C203.08 61.8594 202.84 61.3594 206.28 73.6194ZM204.76 75.0994C201.22 63.8194 201.7 64.3596 200.76 64.6596C185.699 68.9996 194.439 68.6594 183.539 57.3794C179.239 52.9594 179.419 54.9994 182.739 50.2794C186.599 44.7994 186.739 46.1596 179.319 41.8996C174.859 39.3596 175.319 39.2794 174.639 40.5594C173.164 43.0088 171.829 45.5396 170.639 48.1394C169.999 51.1794 159.379 46.3594 152.899 48.1394C149.519 48.4594 149.439 35.7794 146.439 37.0194C136.179 41.2394 136.039 40.6594 136.439 41.8394C139.979 50.2394 141.959 51.5794 138.719 53.5194C131.199 57.9994 129.979 63.5194 127.319 62.0394C117.539 56.0394 119.799 56.1796 115.939 63.6596C114.039 67.3796 113.359 67.9396 114.399 68.3996C129.139 74.8796 122.519 72.5194 123.599 85.7594C123.799 87.9994 124.119 88.5794 122.839 89.7594C122.439 90.1194 114.559 92.4594 113.439 93.1394C112.319 93.8194 114.939 99.4594 116.699 103.379C117.259 104.619 117.139 104.299 124.379 101.379C126.859 100.379 127.359 100.079 128.239 101.379C137.259 114.739 139.399 106.239 132.019 119.619C130.879 121.619 130.739 120.999 141.559 126.039C143.359 126.879 144.619 116.899 148.119 116.739C149.659 116.739 156.639 117.82 157.379 117.7C158.704 117.499 160.04 117.385 161.379 117.359C164.959 117.219 163.959 128.92 166.539 128.2C177.519 125.16 177.659 125.739 177.099 124.079C172.459 110.399 174.239 117.219 184.019 107.079C187.639 103.319 185.219 103.619 193.259 108.339C197.379 110.759 195.139 110.219 201.26 100.339C202.08 98.9994 202.54 99.6394 194.439 95.5994C190.339 93.5994 193.019 93.5996 193.339 81.1596C193.479 76.2996 201.34 78.1194 204.58 75.8194C204.38 75.7194 205.02 75.6194 204.76 75.0994Z" fill="black"/>
<path d="M184.579 44.9594C184.759 45.0794 184.719 44.9594 184.579 44.9594Z" fill="black"/>
<path d="M183.099 268.92C183.319 268.92 182.579 272.92 182.659 273.48C182.687 273.68 182.675 273.882 182.624 274.078C182.572 274.272 182.482 274.456 182.36 274.616C182.237 274.776 182.083 274.91 181.908 275.01C181.733 275.11 181.539 275.174 181.339 275.2C132.259 267.4 129.579 271.76 129.339 267.2C129.339 266.34 129.339 260.2 132.019 260.26C136.399 260.38 160.759 262.68 177.699 264.78C182.939 265.4 183.099 264.94 183.099 268.92ZM181.219 268.14C181.419 265.78 179.699 267.5 139.219 262.46C131.659 261.52 131.439 261.16 131.219 263.7C130.379 270.84 130.619 266.72 175.739 272.6C181.579 273.38 180.659 274.54 181.219 268.14Z" fill="black"/>
<path d="M178.579 226.14C179.219 226.46 179.259 236.5 176.579 235.82C141.699 230.72 131.819 235.08 131.639 229.82C131.379 222.14 133.459 221.68 138.199 222.5C138.359 222.54 174.899 224.4 178.579 226.14ZM176.919 229.28C176.919 226.62 177.439 227.28 169.739 226.78C169.739 226.78 154.599 224.92 150.699 225.06C150.279 225.06 135.419 224.02 135.219 224C134.199 223.84 133.719 224.36 133.639 225.4C133.359 228.84 133.139 228.4 133.639 229.98C133.839 230.68 153.419 232.24 175.779 233.82C176.859 233.86 176.639 233.74 176.919 229.28Z" fill="black"/>
<path d="M173.199 76.2194C177.799 86.5394 169.199 99.3794 159.199 99.3394C148.659 99.3394 141.999 93.1994 141.199 83.3394C139.859 66.9394 165.439 58.8394 173.199 76.2194ZM162.999 69.4794C144.839 62.2394 135.679 87.8394 151.419 95.8794C168.179 104.439 182.999 77.4394 162.999 69.4794Z" fill="black"/>
<path d="M171.859 193.48C171.739 194.74 171.86 195.619 170.28 195.639L147.939 194.16C137.159 193.3 133.639 195.36 136.319 185.22C136.959 182.8 138.16 183.219 153.98 184.299C174 185.739 172.959 182.9 171.859 193.48ZM170.339 188.139C170.139 186.399 140.72 185.16 140.52 185.16C139.7 185.16 138.26 184.359 137.74 186.079C137.554 187.112 137.421 188.154 137.339 189.2C136.859 192.16 138.839 192 143.879 191.94C146.319 191.94 147.14 192.659 156.54 192.759C169.84 192.919 171.319 196.659 170.339 188.139Z" fill="black"/>
<path d="M160.48 245.06C161.02 246.26 161.32 251.7 160.04 253.34C159.26 254.52 157.8 253.5 152.58 253.1C131.64 251.48 129.98 252.8 130.58 247.1C131.2 241.76 132.4 242.08 134.14 242.08C134.18 242.86 159.34 242.56 160.48 245.06ZM158.84 251.3C158.84 250.94 158.68 249.92 158.7 249.68C158.88 248.44 159.62 245.84 158.3 245.68C155.86 245.4 134.3 243.68 133.78 243.68C132.7 243.68 132.62 244 132.4 246.26C132.68 250.4 131.02 249.84 137.42 250.26C140.32 250.44 148.38 251.42 149.8 251.36C155.62 251.04 158.84 253.18 158.84 251.3Z" fill="black"/>
<path d="M154.439 211.56C154.819 212.36 153.899 214.06 152.839 213.9C133.939 212.42 132.339 214.5 133.459 206.88C134.319 201.02 134.179 202.62 152.659 203.62C155.559 203.76 154.979 204.3 154.439 211.26C154.409 211.358 154.409 211.462 154.439 211.56ZM152.719 211.72C153.219 204.32 154.459 205.6 148.079 205.08C133.479 203.94 135.739 203.36 134.979 209.08C134.579 212.06 136.499 210.8 151.159 212.14C152.419 212.06 152.699 212.14 152.719 211.72Z" fill="black"/>
</svg>
